<mxfile host="app.diagrams.net" modified="2024-04-15T10:13:26.543Z" agent="Mozilla/5.0 (X11; Linux x86_64) AppleWebKit/537.36 (KHTML, like Gecko) Chrome/123.0.0.0 Safari/537.36" etag="aN1niK7Rehcf1ZeL5l2H" version="24.2.5" type="google">
  <diagram name="Page-1" id="7EGUlFUVygJAoQiIAhCS">
    <mxGraphModel grid="1" page="1" gridSize="10" guides="1" tooltips="1" connect="1" arrows="1" fold="1" pageScale="1" pageWidth="827" pageHeight="1169" math="0" shadow="0">
      <root>
        <mxCell id="0" />
        <mxCell id="1" parent="0" />
        <mxCell id="ZQ679UXOm5iZFMzoPjvu-19" value="" style="rounded=1;whiteSpace=wrap;html=1;fillColor=#b1ddf0;strokeColor=default;glass=1;rotation=-90;" vertex="1" parent="1">
          <mxGeometry x="-687.93" y="1229.01" width="696.94" height="421.05" as="geometry" />
        </mxCell>
        <mxCell id="rMI3Hbo40x5JovAeGuvk-3" value="&lt;font color=&quot;#8a8a8a&quot;&gt;skip if timeout&lt;/font&gt;" style="rounded=0;whiteSpace=wrap;html=1;rotation=-90;fillColor=#e1d5e7;strokeColor=none;gradientColor=none;glass=1;" vertex="1" parent="1">
          <mxGeometry x="100.75" y="1273.75" width="90" height="422.5" as="geometry" />
        </mxCell>
        <mxCell id="ZQ679UXOm5iZFMzoPjvu-44" style="edgeStyle=orthogonalEdgeStyle;rounded=0;orthogonalLoop=1;jettySize=auto;html=1;curved=1;exitX=0.011;exitY=0.538;exitDx=0;exitDy=0;exitPerimeter=0;dashed=1;dashPattern=1 2;strokeColor=#FF5C0A;" edge="1" parent="1" source="ZQ679UXOm5iZFMzoPjvu-41">
          <mxGeometry relative="1" as="geometry">
            <mxPoint x="170" y="1430" as="targetPoint" />
            <Array as="points">
              <mxPoint x="487" y="1430" />
            </Array>
            <mxPoint x="483.0049999999999" y="1448.135" as="sourcePoint" />
          </mxGeometry>
        </mxCell>
        <mxCell id="rMI3Hbo40x5JovAeGuvk-1" value="&lt;font color=&quot;#ff5c0a&quot;&gt;timeout&lt;/font&gt;" style="edgeLabel;html=1;align=center;verticalAlign=middle;resizable=0;points=[];" connectable="0" vertex="1" parent="ZQ679UXOm5iZFMzoPjvu-44">
          <mxGeometry x="0.7617" y="1" relative="1" as="geometry">
            <mxPoint x="16" as="offset" />
          </mxGeometry>
        </mxCell>
        <mxCell id="rMI3Hbo40x5JovAeGuvk-89" style="edgeStyle=orthogonalEdgeStyle;rounded=0;orthogonalLoop=1;jettySize=auto;html=1;entryX=0.5;entryY=0;entryDx=0;entryDy=0;exitX=0.5;exitY=1;exitDx=0;exitDy=0;curved=1;" edge="1" parent="1" source="ZQ679UXOm5iZFMzoPjvu-11" target="rMI3Hbo40x5JovAeGuvk-84">
          <mxGeometry relative="1" as="geometry">
            <Array as="points">
              <mxPoint x="3" y="850" />
            </Array>
          </mxGeometry>
        </mxCell>
        <mxCell id="ZQ679UXOm5iZFMzoPjvu-11" value="Delay (waiting-period)&amp;nbsp; &amp;nbsp; &amp;nbsp; &amp;nbsp; &amp;nbsp;" style="rounded=1;whiteSpace=wrap;html=1;" vertex="1" parent="1">
          <mxGeometry x="-84.61999999999999" y="750" width="175" height="50" as="geometry" />
        </mxCell>
        <mxCell id="ZQ679UXOm5iZFMzoPjvu-16" value="" style="shape=image;verticalLabelPosition=bottom;labelBackgroundColor=default;verticalAlign=top;aspect=fixed;imageAspect=0;image=data:image/png,iVBORw0KGgoAAAANSUhEUgAAAgAAAAIACAYAAAD0eNT6AAAACXBIWXMAADsOAAA7DgHMtqGDAAAAGXRFWHRTb2Z0d2FyZQB3d3cuaW5rc2NhcGUub3Jnm+48GgAAIABJREFUeJzs3Xl4VOXZP/DvfWZCwpaETZRkBiQJCLhAAiouLRWYSVDQV6WKilVIgkvRal1qWzX27d7X1oqgZCJaccddIZmAFncEMiAgKiYCmQRU1kxYss15fn+A/al1yTnnGbLM93NdXu11Ofd9bryYnG/O8jwAEREREREREREREREREREREREREREREREREREREREREREREREREREREREREREREREREREREREREREREREREREREREREREREREREREREREREREREREREREREREREREREREREREREREREREREREREREREREREREREREREREREREREREREREREREREREREREREREREREREREREREREREREREREREREREREREREREREREREREREREREREREREREREREREREREREREREREREREREREREREREREREREREREREREREREREREREVF7J209AMXegMmFfd2N5sC2noOIOoaWRGPrtpeLd7b1HBRb7rYegGLP3Wier0Tmt/UcRNQxuBvNWQCK23oOii2jrQcgIiKiI48BgIiIKA4xABAREcUhBgAiIqI4xABAREQUhxgAiIiI4hADABERURxiACAiIopDDABERERxiAGAiIgoDnEp4DhgGrJDFEJtPQcRdQymITvaegYiIiIiIiIiIiIiIiKyRdp6AOqY0nPzLwOMM1v7eVHmo+FgyZuxnImoM/D4889UYlzW+grzzZqykkdjNxF1VnwIkGwyzhSlClv7aVGoAMAAQPQDRGEY0PrvlhIDABgAyDK+BkhERBSHGACIiIjiEAMAERFRHGIAICIiikMMAERERHGIAYCIiCgOMQAQERHFIQYAIiKiOMQAQEREFIcYAIiIiOIQAwAREVEcYgAgIiKKQwwAREREcYgBgIiIKA4xABAREcUhBgAiIqI4xABAREQUhxgAiIiI4hADABERURxiACAiIopDDABERERxiAGAiIgoDjEAEBERxSEGACIiojjEAEBERBSHGACIiIjiEAMAERFRHGIAICIiikMMAERERHGIAYCIiCgOMQAQERHFIQYAIiKiOMQAQEREFIcYAIiIiOIQAwAREVEcYgAgIiKKQwwAREREcYgBgIiIKA4xABAREcUhBgAiIqI4xABAREQUhxgAiIiI4hADABERURxiACAiIopDDABERERxiAGAiIgoDjEAEBERxSEGACIiojjEAEBERBSHGACIiIjiEAMAERFRHGIAICIiikMMAERERHGIAYCIiCgOMQAQERHFIQYAIiKiOMQAQEREFIcYAIiIiOIQAwAREVEcYgAgIiKKQwwAREREcYgBgIiIKA4xABAREcUhBgAiIqI4xABAREQUhxgAiIiI4hADABERURxiACAiIopDDABERERxiAGAiIgoDjEAEBERxSEGACIiojjEAEC2iKmUpQLDkBiNQtS5WPyuWP4uEh3GAEC2KKhGiyWJMRmEqLNRZldLnxc5GKNJqJNjACB7LP/QUd1jMwhR56KUYem7osRsiNUs1LkxAJAtAhWx8nnTVEfHahaiTkWsfVcM06iL1SjUuTEAkF3brXxYRLyxGoSok7H6XbH0XST6EgMA2aLgsvpD56SYDELU+Yy08mGlGADIHgYAssWloh9bLBmU7p/ZOybDEHUSaeOv7QOLVwDcCZa/i0QAGADIpq3lJVsA7LFQIgouXgUg+h4uV2O2xZI9m5c8WB2TYajTYwAguxSA960UuKBOjtEsRJ2CEoyx+Pk1OPRdJLLM3dYDUAcmWAOFca39uBJMBvCX2A30/by5hWeYphoFqEyIZAjANxMIELUNSj4B8Ikotaq6vKSiDYeZYunTQChWk1DnxwBAtonCGku/eiiMHTTpmqO3LJn3Waxm+qZB465IMhPdP1VKblJKnSACAFyUkL5CSc7//78Cj7+gQqDurU6uewyLFkWP1BjHjs/v3wKLVwCUrInVPNT58RYA2RZ14T2LJUZLtOWcmAzzLdJyZ41tSUz4SEH+BcEJR+q41OHlKMi/PJHUd9PPuSrtSB00mmCcB6s/k01ZFZtpKB4wAJBttUsCmxTwkZUagTo/VvN8lcdXeIOhzDcEGHgkjked0hhpir7n9eXn/PBHnVPWvxsf1iyd/0lMhqG4wABATr1o8fO5aZMKhsRkksM8ufnTIOpu8BYXOSVIUyKvp/lnxfQNlnT/zEwoTLBWJc/HZhqKFwwA5IgSw2oAECOKWTEZBkCaf9ZJUFIC3ugnfbobMB9Pn3qDtU16LDF+Dos/jxWiVr97RF/DAECO1J56zHuwvhTpjP6+6THZHEhgPgmgWyx6U1wbjrr6P8eicb9x1/QQ4AqLZdtqgg/y/j85wgBAzhQVmVB4yWJVahdJmq57lPSJs7IEOE53XyIAEJFrBk26Rvuro0mJTT8DkGKpSOEF8P1/cogBgBwzFR6wUXa77kuqIsriPVQiS9zRlpZpOhsOGndFEiC/slqnDDVf5xwUnxgAyLHapYG1CnjHYtkAqd93tc45lKHO0tmP6JuUQOuVq5bELtcBSLc4xRs1ZSXrdM5B8YkBgLQQUfdZLlK4LTNvdrK2GaAG6epF9G0EalRm3uxEHb0GTyhMEZi3WJ9B5uo4PhEDAGmR3LPuWVh/GLBvo3nwJm1DKCNJWy+i79Dgau6ro0+zC7cA0sdi2bZ+O/n6H+nB96RJiw8WLWry5hYWK6XutFYpN6dPnLVQz4ImylIA6JmcjEumT0Ov3qnOD00dUmhVCEuDy6BU65+nU82qL4BaJ8cd5Cs8Lgr1S+uV8kBFRXGzk2MTfYkBgLQxGpruiSYmzAbQ20JZkogZAPATOH2qWWEnBJmt/Xh9JILHH3kcM2bNwNDjYro2EbUz9fX1eOqxpxBabX0pfTeUy+HhpcVQc0XB6q2EveJ2Wb/VRvQdnP5FJvqPvVvWNqRm5bgAjLdUKBiUmpn9aV1VyNL2wt+Ukpk9DJDTrNQ0NTVh1YpVcLvdGJw5GCJcP6iz27BuA+bdez+2fLrFTnljFyPpxt2VK21vEuTxFcwQ4BdW6xTkznDp/FftHpfom/gMAGnVaDbcC+vPAkBB7j4678p+To6tRN62U2eaJl549kU8WLwAjQ2NTkagdmz/vv1YUPwQ5t17P+r21tlts7aydI7tvyT9fVcdBVF/tVG6Dcnd59g9LtG3YQAgrT4vX7gfUH+wUdq3S9T9MJws4avM1wFE7JaHVoXw1z/+DTt27LQ9ArVPG95fj/+94/dYvXK1s0Zi+XXXr1V3kWjAxoN/EKXuqln0j4MOjk30X3gLgLTzZGe839iYdAmsPQsACLJSMrN3RKpCtpY4jVStOZiamd0ASK6degDYV78Pq1aswsBBXvTtp+Vhb2pD0aiJ0ldK8cSjT6Kx0dnVHQHqVYLr0sim1fV26tN9BbNFrF/6B7DpqF1G4fbtFaad4xJ9FwYA0m7Hxo3RlKycjwFcZr1azuqZOeaV+qqKz+0cuy47Y1VyY9fJAhxjpx4AmpubsXrlKnTr1g2DBg+y24ba2O5de3D/nPux8t2VWvoJcGu4tHipnVqvv2AEgKchSLB8XKWmffRWgNv+knYMABQTkcpQVUpmzlAAJ1gsdQtwRnL2jx6ObFzRYvnAGzeqlKzsEICZcHA7QSmFDzZsRF1dBMOPHw7D4N2yjuT9Nesw9565+OLzL3S1XBduTMvHluWWfwsfMLmwm0SxFIIBVmtFyaPV5YH/s1pH1Br8qUYx425RNwDYY71SHW/U7wvYPW64LLBKlMwA0GC3x5feev0tzLlnLvbv2++0FR0BLS0teOqxpzF/7nwcOHBAV9sDEORjeZH1QArA1aRKAAy3Ubq7EYaNtQKIWodXAChm9m4O7U/OzNktwGQb5SemZI7eF6mqeNfOseuqKt7vOThnsRjiA9DLTo8v7dq5C2sr1uC44cehZ8+eTlpRDO3etRvz7p2HtWscvU36NQp4R7mQV1MaWG+nPt1feIsAN9g8+rXbyottvdlC1Bp86ZliTTz+gtcAjLNRGxWl8qrLS2zddwWAtPHX9jESmh6Hgs9ujy8lJSWh8Jp8HDd8mNNWpNnqlavx+CNPoKHB8UWfLx0QkduqTx1wH4qKbD1855lY6IOhlsDGL1oK6tWaYMlEcMtfiiEGAIq5Ab4rPS5xr4XVtwIO2Q1DTg6XFlc5GEG8/oJbFPBHOLzt5XIZuOiSi3DGj89w0oY0iUZNvPzCyygvLdfW8/Bv/VfWLglsstsj3T8zU2C8B1t/59UuleA+qeaVBxwtN0z0Q3gLgGKuvmptJDkru1IgF9ko7wqFs/sMyn5q7+aQ7RvxdVWht1MzckIQTAJge9MgpRTWr9uA/fsPYPjxw7lyYBvav28/Hpg7X9tT/lA4KILbw8l7C+pfXGh7MYgBkwv7uqLGMgAemy0uqSkttvUqLJEVDAB0REQqQx+mZuakAcixUd7bNOTHXTNGPL6/ap3tjVDqqkKbemSNfMGAMR6Ao1UHt2zegt27d+H4E0fwDYE2UFMdxj3/90/UVNfoavmWEjM3HCx5GRs32r7sPmByYTd3k1mqgJH2Oqj7w8GSv9s9PpEV/MlFR0xLF/kFgA9tlo9JkKSnMK7I0QZW28oWfJxoJJ0qCkuc9AGAFW+/h/vumYeDB7lA25G0euVq/O1Pd2P3rt062jVB4ebw2LQf1wQfrHTUaepUl6tJPa4gY2122BjtYujbHpvoB/AKAB0x9ZsqmlMyRr0OkcsBdLFaL8CQVHdkQF1V6BUnc+yuXNlYVxV6IjVrNGDv4cT/2LVzF9a/vx4nnHg8unbr6qQV/QClFJaWLcWTjz2FaNT2XjxfVW0oTK4uDzyF5cudPmwnHs/pDwK42FYxUC+G4a9ZXLzN4RxErcYAQEdUpGrNFykZoz+E4CLYeghVspMzsntFqkJlTmepq6xYnpoxegsEeXCwNfa++n2oWB3CsBHDkJzM1wRjoaWlBQsffhSvlr+mpZ8Az7oamydtfXWBlhX2PLkFfwNwjc1yJUpdVh0MvK5jFqLWYgCgIy5SVfFRSma2C5Af26kXkVNSMnOSI1Uhx49+11VVvN9zSPYyUTgHkB52+zQ2NGL1ygpkZWagVx87LzvQd9m/fz8emDMf69au09GuUYCbqoOBm/ZuWavlncH03Pw/iZJb7NYrpe4Kl5fcr2MWIisYAKhNRKpCy5OzckaIvRXSAGBsckY2IlUhx7811VeGanpknPS0iGuckz0EWpqbUbE6hIGDvOh3lKNnDOmwHV/swD3/dw+qt4Z1tPvEMMzc6rKSF3Q0AwCPr+B/BfJrBy1erDkt/VoNtyCILGMAoDZzVNbpwahqmQLgKDv1IjIuJTO7OVIVetPpLPVVayM9hucsNKIYAeA4u32i0SgqVoVw9DFH45gBtrMEAQhvDeOeu+/Fnt02VpP+b08cTIxO3r54wVYdzQDA4y+8HYI77XeQDQcTo+ccmP8PZ9sUEtnEAEBtZnflysbkYSe/KKa6EECKvS4yPjkzp2ukKrTM6Tz1myqaI9kZzyQ3JKaKyCl2+yhlYm1oLZJTUuAd6HU6Vlza9OHHuO+euTiw3/EeDI2i1LXh8pJfH/h4TZOO2QDAm1tYBKi7bDdQqI2aMv7z0pIdumYisooBgNpUZNPq+tTMnKUApgGw9Ri9AGekZI7uF6mqKHU80MaNKlIVKkvNzNkLwAebq2UqpbBh3QYAwJChWY7Hiifvr1mH4nkBNDU5Pl9vMw01qSZY8qKOuQ4TT27B36HwKwc96kwxJm5bWmx7pUEiHRgAqM3VVYV2pGSMeReipsH+0/gnp2TkHB2ZPmWJjvupdVWh95KzsjeIkil29nD/0icff4LmpmYMHTaUqwa2whvL38TChxY6fs1PoN6FaU6sCT5od92Jb23rzS34JxSud9CjScQ4tyY439YmV0Q6MQBQuxCpqtiakpFdCZHzYXePCsHo5Jr6wVmpo1/Zvr3C1gYuX5upMvRhzyHZr4qScwF0t9unqvJT7N+3HyNO4NLB36e8bCmeefIZKOUwvyk8mOjq+tMtwfl79UwGjJg6tUuS57RHAMl30MYUpaZVBwOLdc1F5AQDALUbkarQBymZ2WFAJsNmCBDgpP3dMLbLiJEv6LjnW18Zqkk9duSzyjD8AvS122frlq2IRCI4/sTjGQK+RXlpOV541vGVeiUivwsHAzfurlypZaUgAOjvm969panHc4Cc72g2pa6uLi9ZqGsuIqcYAKhdiVSF1iZnjt4twCQHbQYnRI0J3Yac9MK+yrUHnM5U9+maPT2Gj37KiGIcgDS7faq3VuPAAW4i9E0vPf8yXnnR8S/F+6HkonCw+AEdM30p3T+zd4K4ywD5iYM2CoKfh4MlWmcjcooBgNqdSFXFypSMnP0Q+By0SXMr15TUjFGL66pCji8F12+qONA1Y8QTLsM9GkCG3T5bNm/BwYMHMeJ4u8sfdC4vPf8yyhY7XtRxO0zDH15arGeZwMO8E2YMhuH6NyA2N/Y5TMkvw8HAHE1jEWnDAEDtUqQq9I6GENBXCS5LHpLzXqQy5Pj97/1V65qPyjp9UdRsGQHBMLt9tny6BQcbGjB8RPyGAKUUnnnyGSwLOn17UzZEo3JW7bJinQ/7YaCv4DRlGOUABjrrpH4TLg/8TctQRJoxAFC7FakKvZOamdMAYIL9LtJNFKalZOXURCpDa53OtLtyZTSSnfFMamPiAECy7fbZXLU5rkPAi8++iFeXOv6F/T2zpYtv26sPfKZjpi95cvOnKchzAFKd9FHAnTXBkt9rGotIOwYAatfqqkJvp2Tl7MChZwLs3jh3AzgvOSO7d2T6lHLHrwlu3KjqqkKvpGaM7gbB6XbbxGsIeOn5lxEsdbiNg6iXVXLPc2pfuTeiZ6pDXb25hUVQmAMHm0MBUAJ1YzhY8hddgxHFAgMAtXuRytCq1Izs7RA5G/ZDwKFNhGrqTz5qyOkv765c6Xj51bqqiqVOr1BsrtqMhoONGH687TsKHcorLy5G6SuO12t65KidxmUfL5urbQndfuOu6dFn6MinAcxy2EoBanY4WMJ7/tTuMQBQh1BXFapIzhxdKcC5AAwHrbKiZss5fYaOWrL3kzV1GuZ6OyVj9BeHtxS2FU42f7oZzS0tOG6Y7S0IOoSyxWWOn/ZXwF9qgoHZ27dXaHvNLy0vPz3BZQYBOHnSHwCiomRGuDwQ0DEXUawxAFCHEamqWJ+Smb0OSs51sjofBP1NJZelZGaviFSFqjXMtTo5c/Q2Ac6BzRBQ9UkVolETQ4cNdTpOu/TG8jfw7NPPOewid9QEA3doGeiwtNxZYw2F1wA4Xa+5UZS6pLo88ISOuYiOBAYA6lAiVaGPUzLGvAlR/wMgyUGrboBMS80YXVNXVfG+87kqQikZOTUQ2F7EqPKTSiQkJCAjy/Zbhu3S+2vWYeFDC52t8Ce4PRwMaH2gzuMrmCFQi2B7I6r/2CMiedXBgOP3GYmOJAYA6nAiVRVbUzNzXgEwBUCyg1ZuCM5LzszJ6DF8dLB+U0Wzs7lCa5KzsmsFYvtKwMcfbUJKSjK8gzrHLoIff7QJ8+fOd7K2/5cP1P1V10yDxl2R1GPI6LtF5I9w9rAfAGw3YUysCRav0jEb0ZHEAEAdUl1VaEefoaOeiyrJdbJEL3Bo+WAjirxeGdlLnS4aFKkMrXF6O2DD+g9w9DH9MSBtgJNR2lxtTS3uu2cemhptP6unlML14fKSe3XN5J0wY3A0ISEogvM0tNsYjcpPuKsfdVQMANRh7f1kTV2XESMfcUeNEwUY4rDdMUrkyuSs7E2RypCjRWUiVRWhlKycnXDw6uK6tesxOGMQ+vbr52SUNrNr5y78/a/3YP++fXZbKBG5OhwMzNM1k9dXcI4yjFIBjtXQbqmrsTkv/NqDn2voRdQmGACoQzvw8ZqmSHbGU8mNSYkCnOGwXaJAfpqckd07K3X0q052FIxUhlYlZ+bYvhKglIk1FWuRNTQLvXv3tjtGm2hoaMCcu+dg586d9pso3KJt+dypU11e7xl3KuB+AN2ctlMixf13ymUfvvug430miNoSdyShTsPryy9UIvcBDt4Q+JLC64bItK3B4u0aZnoANr9rXbt2xS9u/gU83nQnYxwx0WgUc/85Dx9t/Mh2D1FyW3V58Z91zHN03pX9Ekz3YwAmamjXohRurCnnuv7UOfAKAHUadVWhitTMnHcBTAbQ1VEzwSAFTEvJGLM6UlVhex+BuqpQxeFFjGxdCWhpacH699djVPZIdOvm+JfXmHvysacQWh2y3+DQ0/5/1DGLd+LM0w24XgXgbDOfQ/aIGOeGg8VPauhF1C4wAFCnUlcV+jQ5c9SzgPicPhwIoCdEXZ6aNdqoGzX4TWzcaOs9tsPBZC8AP2yEgMaGRmxYtwGjx2QjMTHRzghHRNniMiwts7+5z+FFfrS85+/15Rcqw3gKDtfzP6zSpWTCVj7pT50MAwB1OpGqNbtTjzvlcWVGRwtksMN2BoBxqY1JZ6Zmji6vq6qw9VRbXVXovdSM0Y0Qe8sGH9h/AB9t/AijT85BQoLzOxy6rV+7Ho8vdLIGjjxUEwxc53SOvlNm9OwzaMwjEPwKen6+vRntIr5wabHjBaOI2hsGAOqU6j5Z3ZCVOvqJ/d3QD8BoDS2PVVCXpmbmvF9XFfrU1kxVFW+lZOX0AHCanfpIpB6bqzZjzCljYBhOVkPW6/Ptn+O+f85FS0uL3RYvhRvTpmPLctsPXQKA118wIiHqWgaoHzvp8x8K88JNadPqy++2/SoDUXvGAECd1vbtFWakKrQ4NTPnUxy6/O7wV2fpAWC6k7cEIpWhZamZ2Wl2txLevWs3vvh8B0bljIRI2z/D29DQgHv/Pgd799pcPkFhRTRRptSX3+1oY590f+ElAF4CcIyTPoc1KMjVNeWB3zsNJUTtGQMAdXp1VaF1PTPHLBaoCQCcvlMnInLK/m7qx8nDTl4a2bS63vI82RlLUhqSToDA1haA27dtB5TCkOOcLn3gjFIKgXkl+LTK1gURANjoamo+K1z+oOX/hl/KzJud2H3wSfeK4M8Autjt8xWfKFG+mmDA8ZaFRO0dAwDFhfqqis+PGnL6v1rQkiXAcOcdZaCY6vJemaM31lVVfGKpdONG5cnOeL6xMelkAJl2jv7Jpkr06dsH6Z62ez0wuCSIN19/y275TgVzQvWrD22z2yAtLz9dmS2LIXK+3R5fI+plV2PLpOplC2y/9UHUkTAAUNzYXbmyMVIZeiY1M2cPgPFw/ve/mwKmJWdk9/ZkZ7y2Y+PGVi94v2PjxmiP4aOfkyh+IoDHzsE3rPsAgzOORd9+Tl92sG7zp1vwyIJH7G7w02CKkVsbDKyze/w0f+FPDIVyQHTsodwiIv8bPjXt6r0P33NQQz+iDqHtbyIStQGPP/9MQJ6CnnvGALBKotGLq5ctsHQ9fMDkwr6uJvU6bF6VSEpKwi9v+yXSjuC+AQcOHMAf7/oTdu/abadcQdSl4bISu68MiNdfcIsC/gA9v8DsEDGmVZfNf1VDL6IOhQGA4tbhVeIeB+y9mvct6gQorA4GnrZSNMB3pccl7rcA2NoCsHef3rj1NzejZ7KTjRFbRymF+++bjw3vr7fb4TfhYImthX7Sxl/bx3A3PgpIrs2Df3OWNwwYFztd7ZGoo+ItAIpb+yrXHoh4pjyR4t7nBnA6nAfiJAAXWr0lUF+1NpKcOeoVgVwEoIfVgx48eBCbPvoEY04dA7fb6e623+/Vpa/h9ddet1ktz4Vtvus/0F+YDSO6DJAxNg/+VUopNaf/LuOyD98srtPQj6hD4hUAIhy+pwz1GHTdEhC83Swt//NZ6UM7WlvimThrNAxzOYDudg45ctRJKLimIGavB27ZvAV3//kfiEZtve//fpNqOP3z8oX7rRZ6cguugMIDAHQsg1gHJVeEy4tf0NCLqEPjFQAiAPVVFVu6Zpy80CXqRNh8Mv8bvC5lnN8ja2SwvnLNrtYURD6t2JaSmf0BIFNxaAVCSz777HM0NTVh2Ahbbxd+r4MHDuDev8/B/v2Wz98A1C5DYXxt+cNfWCwUb25hERT+DkDHpY0PjajyVS8N2H51gagzYQAgOmx/1er9karQYxrfEuhtwLgkOSt7ZaQytKU1BZGq0MepmTl1AGzd5/606lP0Paof0tPT7JR/p4cDD+PTqs12Sk2YxvnVSwMVVooy82Yn9sg86WGlMBsarlSKkkejiTKlpizA+/1EhzEAEH1DXVXoveQhOW+IiYkQOH2yrqsouSglY8ybrd1VsK4q9F5yRnZvETnFzgE3rt+IYSOOQ2ovHfvgACveWYHgknKb1fKncHlxwEpFv3HX9ICraRmAs20e9KsaFHBNuDzw2/pNFc0a+hF1Gu1nQXGidqSmNPB6s6tlFKDKHDcTdIWYL6X5Z53U6uOfln4DAFv3qZubmzH/vmLU7XX+fFtdXR2eefJZe8UKK47aiSIrJZl5sxOTEpufF5v7JXzDZlHqjJpgwFIAIYoXDABE3+Gz0od2hIMlkwT4BYAmh+1SDJhLB+TOGNqqTxcVmSq5xyUA3rNzsLq6OgTuDzjZoAcA8OSjT+LAgQN2Sve43ebFFRXFrf+tu6jIaDQbHoGG1zJFYYmCObq6vMTSrQeieMJbAEQ/oK4q9F7PrDGvCtREACkOWnU3xDUpOWPko5GqNT+44lxk44qW3kNPfcVU5lSxsa/9nj17sWfPHpw0qtUXHr5m5bsr7V76V4CatrXsQUvhxdMl634IfmbngF8RhZI7wuWBq1vz35gonvEKAFEr1JbNfzchKicCWOSokVKDRRklrf34liXzPjMMYxIAW9vtrXj7Pbyx/A3LdZFIBIuefMbOIQHB3eFgyYtWSry+/EIIZtk74H/shCmTwuXFfwBga41iongVQ5tJAAAgAElEQVTCKwBErbTn04rGSFVoUWpG9naI+GH3+yMYlpo1+rO6yopWXZ6uq6zYkZyV/Z5ALrFzzA8/+AgZWRno27dPq2seefARVFeHrR4KAFYlJ++9zMq+COn+mZkQ4zk42c1P1GqXuCdWl8/nJX+iVuIVACKLqstLiiE4Awq1dnsopf7uzZvV6vX/a8pKlgO43s6xotEoFsxf0Oq1+1evXI01obV2DrXXJa6ffrBoUaufl8jMm50IuJ6GjRUQvySCOck9607fUvbAFrs9iOIRAwCRDeGywCrVxXWKALbOlAC6KRX9F4qKWv0dDAcDDyiRYjsHq6+vx/y589HQ0PC9n6upDuPJR5+ycwgA6karJ+FG8+AfBGqUzQO2iFKzqssC11kJHUR0CG8BENkU2bS6vovn1MfcbnMUgCzrHWRAak19VV1VqNXb4npGDS5vbEz6CWxsHBSpi+CDDR8iMysDPXv2/Nq/U0qhYlUFiueV4OBBO8/OqbJwsOQmKxWDfIXHKcHDsPFzSIB6JerCcLDkSau1RHQI9wIgcih96g1dJVJfBsiPLBcr1EYTZci2l4tb/a7dsePz+7e4jVWA8lg+HgDDMHDcsOOQOSQD3bp3w+7de7Dh/Q3YVrvNTjsAiESjcsK2ZcXVVorS/QUvC3COjeMdMBQmbi0PvGOjlogOYwAg0iAzb3Zyo9nwbwDZ1qutb5Hr9eXnKMibEHS1fjy9ROSq6rLi+VZq0nPzx4mSf9s4XBMEU8JlgaCNWiL6Cj4DQKRBZemciGmocwHVqo1/vk5uzcybbWnJ4erykgoFFFg/ll4C/Lu6rNjqcwkiSv7P3gHVFTz5E+nBAECkSW1pSQ2UkW+jNLnRPDjdalFNeeAxCOydSPXYrwwpgMV37tP8heMA5Fg9mBIpDpeVPGG1joi+HQMAkUbh8uIX7D2pL1fbOt6pabeKwhI7tU4pyK/CpcVVVusMKDt/1k8aG9y/tFFHRN+BAYBIM8Pl+pWNWwEjPL5Z1h8iLCoykeC+TCAfW651ZlnN2AHzrBYN9BceA+A8i2XKULhix/J5+6wej4i+GwMAkWbVi+/fAxFLD/UBgBhmod3jmYieA2CnnXobViUaSRegqMi0WmgC+QASrNQowbN84p9IPwYAohhIlKS5ACy9FqcUJmHqVFtrc9QEH6wUpXIB7LBTb0HwYGJ0fGXpnIi9cnWRxYImKPM2e8ciou/DAEAUA5WlcxoBZenVOAC9BtalnmL3mNXlJRVRiZ4JYJPdHt9HgEC4Me2cnS8tqLdTP8B3pQfACEvHVPJ0TfDBSjvHI6LvxwBAFCPNRjQAoNFKjQnkOTnmtrIFHzc0JuQA8hD07Yi3V0Suqg4GCrG8qMVuE7eRMMlqjUDdb/d4RPT9GACIYuSz0od2KMHLlorEWQAAgB3L5+0LB4tnmGKcDuAtB60aoDDf5UoYZnWhn2+jDt2isGId7/0TxQ4DAFEMCbDYYslJh3bIc662bP674WDgTAOSA+ABADWtKDMBrALkjiblGhguD1y1Zcm8zzSMIwB+YrFikYbjEtF3cLf1AESdmctIKItGmxVav+y2u0EdHAqg1RsE/ZCtweIQgKsBXD1wQv4w5ZITlGAIlEqFkq4K6gsR+VyUWRuNJr1T++pcG6sZfr8BvivTAaRYqRFTleqeg4j+PwYAohjasmTeZx5/wXoAJ7a2Rg49KKctAHzV1mUlHwL4MBa9v48hXUYcurjQOgr4Inxa+hqUx3AoojjHWwBEMSZKrJ3MTRkeo1HajEBZevofwEo76wwQUesxABDFmqgN1j4vWTGapO0oNcxixQcxmYOI/oMBgCjGlFi95G5aulfeIRjqKEsfZwAgijkGAKIYk6hp7aE6kZ4xGqXtKGt/JlNUOFajENEhDABEMWYmuKwtm2siOUajtBkFsXRVw6UMm0sNE1FrMQAQxVgCopZOZko6XwAQKEt/JtNAXaxmIaJDGACIYqw5am33OwGaYzVLG7L03yDa3Cn/GxC1KwwARDFmKGuXvwF0wsvfYunP5DKine4qCFF7wwBAFGOmAasP9XW6AKCgLP2ZDBgMAEQxxgBAFGOGaQy0WNLp7n+LxQBgiuoXq1mI6BAGAKJYE2VpZT+B2hGrUdqMkr1WPi7KsLpwEBFZxABAFGPmobX9W00pY2OsZmlDlVY+bFoMTURkHQMAUSwVFRkAxliqMVRnDACWVvYT4KRYDUJEhzAAEMWQ5+3t2QJYWgZXuV3W9g7oAJRbrC7te8JAf+ExMRmGiAAwABDFlqHyLFbsqXnlgdqYzNKGUrrv+RhAi4USUQq+WM1DRAwARLGl1FRrn8fy2AzStj5YtKgJwBpLRaImx2YaIgIYAIhixuPPPxOCE6zUKJElsZqn7akyS58GpngmzhgQq2mI4h0DAFHMyNVWK8woymMxSXtgiqvUYkkCXK4ZMRmGiBgAiGIhfeKsLAAXWCpSWL9tWXF1bCZqe7U9d68ElLWtkZUUZubNTozRSERxjQGAKAbEUH8G0MVi1VMxGaa9WLQoCshia0XK0xhtmB2bgYjiGwMAkWbe3MIzAHW+xbIml9v9YEwGakdEJGC9CL8ZMLmwbwzGIYprDABEGvX3Te9uKmX9JKfw3JYl8z6LwUjtSnVZ8VtQWG+xLNXVqP4ck4GI4hgDAJFGXSTpXgGOs15p3K9/mvZKrP9ZBTM9vvyLYjAMUdxiACDSJN1XcCkA60+ti1odLp//hv6J2qeDSS2Pws6OhyL3D/Bd6dE/EVF8YgAg0mCgL/8sEdi6hy9w/Ur3PO3ZzpcW1IsSO5f0e7kkYUm6f2Zv7UMRxSEGACKH0v0zTzZFXgRg53W1F6rL5r+qe6b2zmhqukcBW61XquNFGYv7+6Z31z8VUXyRth6AqCPz+gsmKOAZACk2ylvEME6qLp0f893/vL78Qiufry4vKY7VLF9K9xVcKoJHbZYHGxoTLtyxfN4+rUMRxREGACKbvL78QiUyF4DbTr0Af60OBm7VPNa38vgLlJXPh4OBI/GzQTz+ghUATrZVDKyNGmpybWlJjea5iOICbwEQWZSZNzvR4y+8T4nMh82TP4CKnsl7b9c5VwekXEp+BmC/rWJgpBGVFZ7cgjGa5yKKCwwARBYMyr1qUKPZ8DqgrnXQZr9LyWWHd8iLa1vKiz9SwA22GwjSoPCO119wK3hFk8gSBgCiVkr3F1wQVdE1AE5x1Ejhui3lxR/pmarjqwkGAg6XQXYr4M8ef8ELfEOAqPUYAIh+QPrUG7p6/fkBOfSwX6qjZgrzwuWBBXom6zzE7boaQKXDNlMExpq03FljdcxE1NkxABB9j0G+wuMksm+FguQ7bqbwfDhl73Uaxup0qhffv8dQygdgu8NWXkOZb3hzC4tQVMSfb0Tfg18Qou/g9edfHhW1GsCJTnspqFcTXUnTDu2IR99ma3nJZuUSP4A9Dlu5lVJ3et6tWXx03pX9dMxG1BkxABB9Q79x1/RI9xc8oiD/AqBjwZk3m1XjuZWlcxo19OrUapYUr1dK8mDzzYCvk9wE073e68uf6LwXUefDAED0Fd68WcOTElveFWC6ppaLVHIP/+flCzWc0OJDTXnxe6ahJijgCw3t+iuRUm9uYRGmTnVp6EfUaTAAEB3m9edfrkxzFaCO19FPKXVveGzaxTWL/nFQR794UltassKIRscC+FBDO5dS6k5PJHWZZ+KMARr6EXUKfG+W4t7gCYUpzS4VADBVU8tGUTKrurz4X5r6OdZOVwL8Qd6zr+6FlpZnFfATTS13KBiX1wTnl2nqR9Rh8QoAxTWvLz+n2Y0Q9J38Kw3Iae3p5N+RVS++f0/P5L25Sql7AVgKMd+hn8Bc7PEX/gHjiuyu4kjUKTAAUNzy+vMvV5A3odRgPR3lOVdj85itweKQnn4EAB8sWtRUU15yPQTnAditoaUBqF97EmtfG+gvPEZDP6IOiQGA4s6gcVckef35AQX5FwRdNbRsEOAX4WDxBVuWP7xXQz/6FuGywEtR1TISgrc1tTzThHrfmztrvKZ+RB0KAwDFlXT/zMxoYsJ7Whb2ASCQj00Yp1YHA//U0Y++37byh8LhhrRxInIXAFNDy35KmWXe3MIi8JkoijP8C09xw+ubOVmJ8QicLud7mAIWNjYmXNMR9qTvqA8Bfh+vv2CCgloIyNGaWr7kamz+Ga/iULzgFQDq/MYVub2+wr8qMV6EnpP/PoH6WU0wcHlHOPl3VtXBwDKV4B4NqDc0tZwSTUx4L31S4Qma+hG1awwA1KkNmnTN0Z7EmleVqJuh54rXOpeSMdXBkkc09CKHal55oDacXHcWFH4PPbcEhkhUrfD6C3QtBEXUbjEAUKeVnpt/Yku0eQUgP9LRTwELo11kLLfybWcWLYqGywO3C+AH1GcaOnZTwCPe3IJ7+aogdWYMANQppfsK8kTJmwIMdNpLgHqIuqQmGLh828vFB3TMR/pVBwPLmo3oiYDSssiPUpjtSaxdMmjcFVqeGSFqb9r9gz5EVnn9Bdcr4O/QE3BDCuZFNcEHne5V36a8vvxCK5+vLi8pjtUsR4B4/QXXKeBvABI09PvEdOGc2iWBTRp6EbUbDADUaYyYOrVLJNLrAUBdqaWhwrxEV9KN3MWvY/L4Zv0IYj4BQMf6/zsBdX44WPKmhl5E7QIDAHUK6f6ZvQXGswDGOW6mcBDAz8PlgQWOe1GbOjrvyn4JpvsxADq2BG6CYFa4LPCwhl5EbY7bY1KHlz5xVpYh8iqA0RrabVJu8dWUBYIaelEb21e59kAkO+Px1KauCsCP4OyXHheA85IzsntHpk8px/LlOvYmIGozvAJAHZpnYqEPhnoaQIqGdosOJkZn7nxpQb2GXtTOeH0F5yjBIwB6aWhXmmgkXVxZOieioRdRm2AAoA4rPTf/MlGyAM4f9GoR4LfVwcBfoWfHOWqnPHmFGWKqZxQw0mkvBVnjdrknbVkyT8erh0RHHAMAdUjanvRXqBVlXlS99EFdG8xQOzdo3BVJLUld/ilKWXoz4jtsVqbhr1k6/xMNvYiOKAYA6mjE4y/4PwA3Om2kgHcSWtT5m18t+VzDXNTBpOfmzxQlcwEkOmz1uQGZxG2gqaNhAKCOY1yR29tl20NK1GVOW4mSR7u4EvP5il98G+grOC0qeF6Aoxy22gdTLggvLS7XMhjREcAAQB3C4Xf8nwDU+Q5bKRH5XXVZ8V3g/X4C4J0wY7ByuV4CMMJhq0YIfhouC7ykYy6iWGMAoHYvM292YqPZ8BSAcx22alCQmTXB4sd1zEWdR98pM3omNboeF+Ach62iStQVNWUlj2oZjCiGuA4AtWsDJhd2M1taXgIwyWGr7RD4a4J8v5/+24GP1zRFsjOeTm5MShTgDAetDIGcm5oxemtdVcX72gYkigEGAGq3+o27pkcXRBdDcJbDViGV4DqrZgl38aPvsXGjilSFliVn5mwTIBf2fz4aEJybkpWzI1IZWqVzRCKdGACoXUqfekPXLtGGVyAOl/ZVeL4JDVO2ly7YpWcy6uwiVaFQakb2CohMBpBks40AmJSclV0TqQyt0TgekTbcDpjanRFTp3ZBZN8iBfzEWSeZGz4t7cLPyxfu1zMZxYvq8pKlLiVjFbDVQRsRJcXpvoJLtQ1GpBEfAqT2ZepUlyeS+gSAqU7aKOAvNcHArzRNRXFqoL/wGBOqFMBJDtpEoXBZuDzwpK65iHRgAKD2Y+pUlyfS6zFAXeSgS1RBrqoJFpdom4vi2qBxV6RGExNeAnCmgzbNoswLqssffFnXXERO8RYAtRueSMochyf/Rii5kCd/0mnL8of3quQefohycvJOUGI8nZ5X8GNtgxE5xCsA1C54cwtuUwp/dNCCi7BQbE2d6kqPpD4kwHQHXSImjB/VBufzFUFqcwwA1OY8ufnToOQx2P/7eECAc6uDgWU65yL6L4duUwUAdaXtHgq1UVNO27asuFrjZESWMQBQm0rzF/7EOPSQld0NWfabkMm1weJ/65yL6HuIx19wL4CfO+jxgbjdZ1Yvvn+PrqGIrGIAoDYzyFd4XFTUCgApduoFqI+K4a8tm/+u5tHoMI+/oMLK58PBQE6sZmlnHIcAJXit/w7JragobtY4F1Grudt6AIpPfafM6BltVM/C5skfCgdNQ03hyT/mstt6gHZKhYOB6zz+AjeAq+w0EIWzvuiLf8DZlQQi2/gWAB15RUVGUqPrcQDDbXZoUoa6sKasZLnGqYisUuFg4BqBcvDWibo23V9QoG8kotZjAKAjzvNO7e8d7LrWLMq8sKasZInWoYjsUdXJdVdBwfYiPwLM9fjznawxQGQLAwAdUen+ggsgsLtCn1IKV3IxFWpXFi2KHrVLLhcFu6E0AZAnB/oLj9E6F9EPYACgI2aA70qPAMWw+fCpALfVlAce0zwWkWMVFcXNZkqPCwXK7jMpA0yopzB1KjdooyOGAYCOjKIiwyXuRwD0tlOuRIqrg4G/aJ6KSJuaRf842NLFmAJgk80WZ3rqenH/CjpiGADoiEh/p+Z2wPbWvi/W9NxzjcZxiGJi28vFOyUazQPwua0GoorScmeN1TsV0bdjAKCY806cebqI/NZm+bom1XApFi2Kah2KKEaqly341DTUeQAabJS7DahHM/NmJ+uei+ibGAAopvr7pndXhrEQttacULsMpc77vHzhfu2DEcVQbWnJCkDZu2ql1OAGs+E+zSMR/RcGAIqpLpJ4F4BjbZS2GAo/3Vpesln3TERHQjhY8pAI5tipFWC611dg91VZolZhAKCYSZtYMBKQ6+3UCnDT1vKS13TPRHQkVTek3SiArX0qTMF9/X3Tu+ueiehLDAAUG0VFhiG4H3Yu/Ss8Xx0M/FP/UERH2PKiliaj5SIA26yWCjAwUZLuiMFURAAYAChGvO/WzobgVMuFCrVmtAuXRqVO47PSh3YoA5cAsPwgqwJuHJg3c1QMxiJiACD90sZf20cBd9kojSoXLq19de4u7UMRtaGa0sDrAtxto9StTJkL7txKMcDdAEk7w914GyDWd/lT+FNNaeD1GIx0RA2YXNjX3WgObO3nW0xjx7ZlxdWxnInaXr+d8tsv+qofAzjFSp2CjE3PLTivpizwfIxGozjFKwCklWfijAGAXG29UjYctUt+p3+iI8/daJ6vRFa39h+3S9ldI4E6kIqK4mbThcthY30AUfg9lwkm3RgASCsxXEUAulksM8WMXlVRUdwcg5GI2o3aJYFNEPzBRulwTyTlcu0DUVxjACBt0ifOylLAFdYr1fzqpQ++rX0gonYouefevwL4wHqlFGXmzU7UPhDFLQYA0sYworcASLBWpT5zNbb8OiYDEbVDHyxa1CSmOQuAabHU22gezI/FTBSfGABIC+/ZV/dSkEtslP56y/KH92ofiKgdq1764NtQeMhqncCYDb4RQJrwLQDSwow25wvE0r1/gXxc3Zi2MFYzkXPhYIAnm1hR0Tsgrmmw8MyMghrqmVg4Mby0uDyGk1Gc4BUAcq6oyBBl/cl/U9RtWF7UEouRiNq78NIF20TJXKt1ylCzYzEPxR8GAHLM827NZFjf8GdVTVnghVjMQ9RhJLj+BGCPlRIBJnnyCjNiNBHFEQYAck7Jz6yWiMLvAKgYTEPUYVQvvn+PAu6xWGYoU3G5bHKMAYAcSZ96Q1cIfBbLqqpPS1sSk4GIOhizi8yDxcWBBLgwRuNQHGEAIEekbr8fgKUtSwXqPhQVWX0FiqhT2vZy8U4AT1osy0ifVHhCLOah+MEAQM4Y5nkWKw7AnfCvmMxC1EEZhnmv1RqJwup3j+hrGADIvnFFbig522LV09WL77f00BNRZ7e19ME1UFhhrUoxAJAjDABkW1rS9jEA+loqEnBHM6JvJU9bLBg1wHelJyajUFxgACDbxDRHWyw5EE2QZTEZhqiDcxmG1XAsbnGPjckwFBcYAMg2ERll6fNA6baXiw/Eah6ijmxL2QNbALxvpcYUZek7SPRVDABkm8DaDx8TCMZqFqLOQIAXrX1esmM1C3V+DABkS2be7EQFjLBS44JUxGoeos7AhPGupQKlcmI0CsUBBgCypdlsHAFrW/82JRiJNvZAJ4ofzUpC1iqkDx8EJLsYAMiWqJiDLJZsqCyd0xiLWYg6i8/LH/gCCrVWatziHhqreahz43bAZIsoHGPt87IxVrO0Ny2JxnPuRrPVtztaTGNHLOehjkUJ1gqQZqFiQOymoc6MAYDs6m/lw6YoS7/VdGSHl3bd2dZzUMckkC2W9slSBgMA2cJbAGRXNysfFsUTIlGrKGy38nHTMFNiNQp1bgwAZJORZOnjog7GaBCiTkXE3G/p88rid5HoMAYAskWJpTcAIArNsZqFqFMRw1pYVqprjCahTo4BgIioPTFNCw8AAMoQidUo1LkxABAREcUhBgAiIqI4xABAREQUhxgAiIiI4hADABERURxiACAiIopDDABERERxiAGAiIgoDjEAEBERxSHuBkjUyQ30Fx6jlHm6KXIGoI4XSF8AfaDQBwJDAXUC1AHYCqj3BfK+meB6reaVB+JmB0eieMQAQNQJDZhc2NfdrAqUwhUm1BCI4NB6sV9ZNVb+8z9H4dA/WYBMUACkOQqvv2AtBE+7mtWCza+WfH6k/wxEFFsMAESdiDdv1nBlmr9Ek7pEAY52iVPASCiMbHFLkcdXsBAqekd46YJtumYlorbFAEDUGUyd6vLW9bpZmeZdALpo7t4FgpkQ18Xe3ML/a0nAX7e9XHxA8zGI6AjjQ4BEHdxAX/6xnkjKa0rUn6D/5P9V3ZVSdxpNqmKQr/C4GB6HiI4ABgCiDiw9N/98U2QdID86UscU4LioqHc8vllH7JhEpB8DAFHHJF5/wa2iZBGAHm1w/F4QszTdPyu3DY5NRBowABB1MH2nzOjp8Rc8p4A/o22/w90E5ovp/oIL2nAGIrKJAYCoA0mbVDCka6PrPQDntfUsh3UR4Cmvr/BnbT0IEVnDAEDUQXhyC6YYUawCMKytZ/kGlxK1IN1fUNDWgxBR6zEAELV/ku7LvxMKLwBIbuthvoMhwHyPr+Cmth6EiFqH6wAQtWNp46/tI+6mfwlwdlvP0goCwd88/sJB4eQ912PRomhbD0RE340BgKid8k6ceboymp8A4NHRz+NNx8ickcjIzEC/o45Cjx7dISI4cOAAttduxyebKhFaHcJn2z9zeCR1bXokdVDjuGsu3rF83j4dsxORfgwARO2PpPsLb1ZQfwCU4+9o/6P7Y9r0izFk6JBv/ffJyclITk7G0GFDcc65Z2PD++vx3DMvOAoCApydlNj8umfijMlcPpiofWIAIGpHBkwu7OtuVP9SUJN09Dv51DG45PJL0KVL6xcIPP6kEzB0+HEonluMDzZsdHL4bBjuFemTCs+uWVK83kkjItKPDwEStRPeiTNPdzUhpASOT/4ul4ELLjofV+RfYenk/6WEhARcNXsWRmWPdDiJ8khUveWZWOhz2IiINGMAIGp74vUXXK8M49+Acny/v3uP7rj2+mswfuJ4R31cLjdmXjUTp552qtORkmGoJd7cwiIUFfFnDlE7wVsARG3o2PH5/Vvc8pAC8nT0S/ekYda1s9Cnbx8d7WAYBqZfeRncCW689fpbTlq5lFJ3et7ddkJi3uwrK0vnRLQMSES2MY0TtZF0/6zcFresgaaTf86YHPzyV7/UdvL/kohg2mUXY4LP2RWFQ9T5jWbD6vRJhSdoaEZEDjAAEB1hfafM6OnxFZQIzFIAxzjtZxgGzrvwPMwovBKJiYkaJvxvIoLzf3o+zjn3bIiI03ZZElXvpvsLL9ExGxHZwwBAdAQN9BWc1rXJvRaCmTr69ejRA9dcfzV8uRN1nJh/0KTJk/CzGZfD5XJ897C7QD3m8RfMGTF1qvWnFInIMQYAoiMgJ6cwweMv/IMpeANKDdbRc3BWBm6741cYPmK4jnatdvLYk3HdL3+O7t2762j38/pIyvIBviu1LHZERK3HAEAUYwMn5A/7oq96F1C/BuBy2k9EMG78ONxw0/Xo1buXhgmtyxqShVt+czP69z/KcS8FGesS93pPbv40DaMRUSsxABDFjnh9+YWmS1YByNHRsHuP7rj6uqvw02lT4XI5zhKO9DuqH2667SZkZmXqaJcCJY+n+wse6Tfumh46GhLR92MAIIoB74QZg9NzC5YpkfkAtFwrH5yVgV/f+Wscf8LxOtpp0b1Hd8y+8ecYNXqUln4CTE9KbK7wTJw1WktDIvpODABEOk2d6vLkFtyoXK71onCWjpYiAl+eDzfc9Av06pWqo6VWCQkJyJ81E5POydP1IOIQGOa7Hn/+73JyChN0NCSi/8YAQKSJxzfzeE8k9W0o3A2gm46eX17yP++Cc+Fytd+vq4jgnPPOwdXXXaXr4UA3ILd/0Rehgf7CbB0Niejr2u9PFKIOIjNvdqLXX3AXxAgBOEVX36HDhra7S/4/5PgTjsetv70F6V5dD/Wr402odz2+wt/wagCRXgwARA6k5c4a22g2VCjgDgBaTlAJCQk474Jzcd2Ns9vlJf8f0rdfX9x82y9xxo9O19WyC0T9/ou+aoPXXzBBV1OieMe9AIhsGDC5sJvRpO4QZd4EDa/2/adv2gBckX8F0j1pulq2iYSEBFxy+SXIyMzA4wufQHNzs462QxRQnu4veDShRd28+dWSz3U0JYpXvAJAZJFnYqHP1aQ+EOBWaDr5G4YB3yQfbrvj1g5/8v+qU047BTfeeiN69+mtq6UIML3FLR96fIVXY+rUtn0XkqgDYwAgaqWBvvxjvf6CZ2CoIIBBuvr26dsHN9zyC5x3/rk6lthtdwYO8uK223+FE0ZqfZahF0TN80ZSV6fn5o/T2ZgoXnS+nzZEmvX3Te/eRRJvMyG/BJCks/fY08di6rQLkZSktW27071Hd1Hd350AAAl2SURBVFx17VV48/U38exTz+m6JQAFjBQl//b6C54VpW7eWl6yWUtjojjAAED03SQ9N/9SMeXPALRel+/ZsyemXT4NI0edpLNtuyYi+NG4HyFrSBYWFD+E2ppabb0VcIESOdvjK/hHoivpz5WlcyLamhN1UrwFQPQtPLkFY7z+/LdFyUKI3pN/9uhR+O1dv46rk/9XHTPgGNzym5tx1sSzdO9gmATBbY1mQ5XHV3hDZt7s2OyNTNRJ8AoA0Vek5eWnGwq/h8J0BdEakFNSU3DxpRfjpFEn6mzbISUkJODCiy7ASaNOxCMLFmLXzl062/eFqL83mg2/8Pjzi8LJdY9g0aKozgMQdQa8AkCEQ/f5vf6CW12mbISSn0Hjd0NEcPLYk/Hbot/w5P8NWUOycPvvfgtfnk/31QAA8AKyID2SusGbWzgVgPYDEHVkvAJA8W1ckdvTZVuBElWkAOd7235Dv359cenll2DIsKG6W3caXbp0wXkXnIuhxw3BY488ht279mjtL8BxSqmnPf6C90zIbbXB4n9rPQBRB8UrABS3PP78c9MTa9dD1DzRfPI3DAPjJ47Hb+76DU/+rTRsxDDcftftmOCfEKutjk8xoF7z5BYEvb58LdszE3VkvAJAcSfdP/NkUcZfAfw4FteE09IG4NIrLsWgYwfFoHvnlpiUiPOn/g9OPe0UPPnoU6j8pFL/QRR8SmSiJzf/FVPwx9rSkhX6D0LU/jEAUNwYOCF/mOmSuwBcCNF/P9jlcmG8bzzOOfdsuN38ajkxIG0AbrjlF1j57ko8+8zz2Bep130IgZLJhsJkT27B22Kaf6kuf/Bl3Qchas/4U4o6Pe+EGYNNl6vIBC5FjG57jThhBC686AL0P7p/LNrHJRHBKaedghNGnoBXXlyMN5e/iWg0Bg/zK5yuxHgp3V/wzv9r795i7CrLMAC/a2ZKh7aiFNqBOtMDwkVtJbEBTDm1FS2d0ulBLdGIAdJpA0iNRIhceCBqMBAuTEzk0A7xEBIRK4SWMp1WIWKQEKsESrjQhB4GYhEjUJROaffyQogkGhxkL/bs7udJ5m7n/96rvd9Za/3/ak9x455td2xNUtZ/EIwtCgBHrZN6L5/SUev4Spl8uUgq2RM+tWtKlq9akXlnfLSK5UkyYcKEXPy51Vnw8QXZdPem7HpyVyVziuTsWsotPYvXPlUU5S17j3v5LtsHOZopABx1pvWtO7HjUHldWcvVSSZUMaOzszNL+3qz6BMLj8rz+8eirq6puepLV2bXk7uy6e5N2b//hWoGFflImeJHPa984PosXnvL+PbOu/704PdHqhkGjeObi6PGSb2XTzmm1nFteai8qkwmVTGjKIrMP2d+VnyqL+877rgqRvA/zD19bmbPmZ1fP/xIHnxgsIrnA940O0UGRmoHb+xe3H/r6+m4df/QbRW1DnjvKQA0vVkX9HcdHldcm1quLJOJVc055bQP5eLPfibTZ0yvagSj1N7enkUXLMzZ58zPL3f8KjsGd+TgwYNVjesqiuKGY3Lk+p7Fa+9Kat/bNzRQzX0IeA8pADStN+/xH07Wp6zmUn+STD5hcvpWLMtZ88+q4rQ63oXxneOzdFlvFiw6P9sHd+ShHQ/V7U2D/0VniqxJ2ta8ZefAlnhgkCalANB0uldfc2xeefW7xZGsS5Fjq5ozadKkLO3rzXkLz3Wff4ybOHFiVn56RRYsOj8P3L81jz36WGq1WnUD39g50HPh2mfK5OvD2zZsqm4YVMO3Gk3l1N714w+9/OrPyyJLqzrZvb29I+ctPDd9Ky7KsRMqu7BABY6ffHwuuezz+eSST2TzfZvzh51PpCwr/Qd9dpHc033hunXD2+7YWOUgqDcFgKZxau/68SO11+5LUSypYv2iKHLWx85M36rlmXzC8VWM4D3SdVJX+q/oz57de3L/vZvzzNPPVDmuKFLe1rO4/8C+oY13VzkI6kkBoGmM1A7+NKnmx3/O3A9n+arl6ZnRU8XyNMiMmTOy/pqrs/vZ3RncMpinntxV1RWB9hTFT7qX9B8YHty4tYoBUG8KAE2he0n/6Smzst7rzjplVlas6vPCnqPczFkzc8X6K/L8c89naHB7dj7+uxw5UvdnBMYVZfHtJAoATUEBoCkUZbG2nuv1TO9O38q+zD19bj2XZYyb9sFpuWzNpVm6bGm2bd2Wxx97vN7HC8/rWbxmrm2CNAMFgDFv5sLLOo/86xz/d62ra2qWrVyWeWfMs6WvhU3tmpIvXH5JLlp+UbYPbs+jv3m0ftsH29ouTXJdfRaD6igAjHmvTxg3ve1I6vJU3v79L2Tg9jszcPud9VgO/lOZ8xsdAUajkjejQT2Vhw+/1ugMMGpFXmp0BBgNBYAxr9aeys54hbor89dGR4DRUAAY89o6xv09SYXHukH9FEVebHQGGA0FgDHv+c13/CNlftboHDAatVoebHQGGA0FgKZQlm3fSHK40Tng7RQpfzs8tEEBoCkoADSF4e23/zHJjxudA95WmW82OgKMlgJA0+hor30r8UAgY1OZ3LR3aOP2RueA0VIAaBrPbh3Yk7J2ZpE80egs8FZlctPwtg3XNzoHvBMKAE1l39DArraR1+cXyc1xNYAGK5MXUmaNH3+akQJA09n98A8P7t224avluPZTU+YHRXKg0ZloOS8Vyc2dbZ2n7Rva4FhJmpKjgGlaw1tuey7JF+esXn3NgZffv6CWLEuROUWKk5OcnNTn+GBa3t+S/DnJ/iS/r6XY8tzItEfy8A12pdDUFACa3tP33HMoyfY3/gAYBbcAAKAFKQAA0IIUAABoQQoAALQgBQAAWpBdAPxfilr2psjO0X6+1lb8pco8ALwzRaMDAPBv0/rWndgxUpsx2s+3d5QvPrt1YE+VmQAAAAAAAGgangFoAd1L1q4qynyt0TmA5lAW+c7w4IZ7G52DatkF0ALaauWUsijmNToH0BzaauWURmeges4BAIAWpAAAQAtSAACgBSkAANCCFAAAaEEKAAC0IAUAAFqQAgAALUgBAIAWpAAAQAtyFHALODy+7RcdI7Wdjc4BNIfD49v2NDoDAAAAAAAAAAAAAAAAAAAAAAAAAAAAAAAAAAAAAAAAAAAAAAAAAAAAAAAAAAAAAAAAAAAAAAAAAAAAAAAAAAAAAAAAAAAAAAAAAAAAAAAAAAAAAAAAAAAAAAAAAAAAAAAAAAAAAAAAAAAAAAAAAAAAAAAAACT/BH/PJ8GHWKxGAAAAAElFTkSuQmCC;" vertex="1" parent="1">
          <mxGeometry x="40.379999999999995" y="750" width="50" height="50" as="geometry" />
        </mxCell>
        <mxCell id="ZQ679UXOm5iZFMzoPjvu-20" value="" style="shape=image;html=1;verticalAlign=top;verticalLabelPosition=bottom;labelBackgroundColor=#ffffff;imageAspect=0;aspect=fixed;image=https://cdn4.iconfinder.com/data/icons/evil-icons-user-interface/64/pen-128.png" vertex="1" parent="1">
          <mxGeometry x="630" y="1093" width="38" height="38" as="geometry" />
        </mxCell>
        <mxCell id="ZQ679UXOm5iZFMzoPjvu-22" style="edgeStyle=orthogonalEdgeStyle;rounded=0;orthogonalLoop=1;jettySize=auto;html=1;entryX=0.5;entryY=0;entryDx=0;entryDy=0;" edge="1" parent="1" source="ZQ679UXOm5iZFMzoPjvu-21" target="ZQ679UXOm5iZFMzoPjvu-24">
          <mxGeometry relative="1" as="geometry">
            <mxPoint x="167.5" y="1409.9999999999998" as="targetPoint" />
          </mxGeometry>
        </mxCell>
        <mxCell id="ZQ679UXOm5iZFMzoPjvu-28" value="&lt;span style=&quot;text-align: left; background-color: rgb(13, 16, 23); color: rgb(191, 189, 182); font-family: &amp;quot;Fira Code&amp;quot;, &amp;quot;Droid Sans Mono&amp;quot;, &amp;quot;monospace&amp;quot;, monospace; font-size: 14px; white-space-collapse: preserve;&quot;&gt;cmd.&lt;/span&gt;&lt;span style=&quot;text-align: left; font-family: &amp;quot;Fira Code&amp;quot;, &amp;quot;Droid Sans Mono&amp;quot;, &amp;quot;monospace&amp;quot;, monospace; font-size: 14px; white-space-collapse: preserve; background-color: rgb(0, 0, 0);&quot;&gt;&lt;font style=&quot;&quot; color=&quot;#e6e6e6&quot;&gt;Start&lt;/font&gt;&lt;/span&gt;&lt;span style=&quot;text-align: left; background-color: rgb(13, 16, 23); color: rgb(191, 189, 182); font-family: &amp;quot;Fira Code&amp;quot;, &amp;quot;Droid Sans Mono&amp;quot;, &amp;quot;monospace&amp;quot;, monospace; font-size: 14px; white-space-collapse: preserve;&quot;&gt;()&lt;/span&gt;" style="edgeLabel;html=1;align=center;verticalAlign=middle;resizable=0;points=[];" connectable="0" vertex="1" parent="ZQ679UXOm5iZFMzoPjvu-22">
          <mxGeometry x="-0.4037" relative="1" as="geometry">
            <mxPoint y="-79" as="offset" />
          </mxGeometry>
        </mxCell>
        <mxCell id="ZQ679UXOm5iZFMzoPjvu-21" value="&lt;span style=&quot;background-color: rgb(13, 16, 23); color: rgb(191, 189, 182); font-family: &amp;quot;Fira Code&amp;quot;, &amp;quot;Droid Sans Mono&amp;quot;, &amp;quot;monospace&amp;quot;, monospace; white-space: pre;&quot;&gt;&lt;font style=&quot;font-size: 12px;&quot;&gt;logBuffer&lt;/font&gt;&lt;/span&gt;&lt;span style=&quot;background-color: initial;&quot;&gt;&amp;nbsp;= []byte{}&amp;nbsp;&lt;/span&gt;&lt;br&gt;&lt;div&gt;&lt;span style=&quot;background-color: rgb(13, 16, 23); color: rgb(191, 189, 182); font-family: &amp;quot;Fira Code&amp;quot;, &amp;quot;Droid Sans Mono&amp;quot;, &amp;quot;monospace&amp;quot;, monospace; white-space: pre;&quot;&gt;&lt;font style=&quot;font-size: 12px;&quot;&gt;status&lt;/font&gt;&lt;/span&gt;&amp;nbsp;= &quot;RUNNING&quot;&lt;/div&gt;&lt;div&gt;&lt;span style=&quot;background-color: rgb(13, 16, 23); color: rgb(191, 189, 182); font-family: &amp;quot;Fira Code&amp;quot;, &amp;quot;Droid Sans Mono&amp;quot;, &amp;quot;monospace&amp;quot;, monospace; white-space: pre;&quot;&gt;&lt;font style=&quot;font-size: 12px;&quot;&gt;execuitedAt&lt;/font&gt;&lt;/span&gt;&amp;nbsp;= now (ns)&lt;/div&gt;" style="rounded=1;whiteSpace=wrap;html=1;align=center;fillColor=#B8FAFF;strokeColor=#18D7C4;" vertex="1" parent="1">
          <mxGeometry x="87.38" y="1137" width="160.25" height="90" as="geometry" />
        </mxCell>
        <mxCell id="rMI3Hbo40x5JovAeGuvk-6" style="edgeStyle=orthogonalEdgeStyle;rounded=0;orthogonalLoop=1;jettySize=auto;html=1;" edge="1" parent="1" source="ZQ679UXOm5iZFMzoPjvu-24" target="rMI3Hbo40x5JovAeGuvk-7">
          <mxGeometry relative="1" as="geometry">
            <mxPoint x="167.5" y="1690" as="targetPoint" />
          </mxGeometry>
        </mxCell>
        <mxCell id="ZQ679UXOm5iZFMzoPjvu-24" value="execution complete&lt;br&gt;or &lt;br&gt;timeout" style="rounded=0;whiteSpace=wrap;html=1;fillColor=#f5f5f5;fontColor=#333333;strokeColor=#666666;" vertex="1" parent="1">
          <mxGeometry x="77.5" y="1580" width="180" height="70" as="geometry" />
        </mxCell>
        <mxCell id="ZQ679UXOm5iZFMzoPjvu-29" value="command execution" style="rounded=1;whiteSpace=wrap;html=1;rotation=-90;fillColor=#dae8fc;strokeColor=#6c8ebf;glass=1;shadow=0;" vertex="1" parent="1">
          <mxGeometry x="-130" y="1390" width="261.25" height="60" as="geometry" />
        </mxCell>
        <mxCell id="ZQ679UXOm5iZFMzoPjvu-31" value="" style="endArrow=classic;html=1;rounded=0;entryX=0.962;entryY=0.995;entryDx=0;entryDy=0;entryPerimeter=0;" edge="1" parent="1" target="ZQ679UXOm5iZFMzoPjvu-29">
          <mxGeometry width="50" height="50" relative="1" as="geometry">
            <mxPoint x="168" y="1300" as="sourcePoint" />
            <mxPoint x="-21.799999999999955" y="1300.1625000000001" as="targetPoint" />
          </mxGeometry>
        </mxCell>
        <mxCell id="ZQ679UXOm5iZFMzoPjvu-32" value="new thread" style="edgeLabel;html=1;align=center;verticalAlign=middle;resizable=0;points=[];" connectable="0" vertex="1" parent="ZQ679UXOm5iZFMzoPjvu-31">
          <mxGeometry x="0.2628" relative="1" as="geometry">
            <mxPoint x="22" as="offset" />
          </mxGeometry>
        </mxCell>
        <mxCell id="ZQ679UXOm5iZFMzoPjvu-33" value="" style="endArrow=classic;html=1;rounded=0;exitX=0.036;exitY=1.047;exitDx=0;exitDy=0;exitPerimeter=0;" edge="1" parent="1" source="ZQ679UXOm5iZFMzoPjvu-29">
          <mxGeometry width="50" height="50" relative="1" as="geometry">
            <mxPoint x="-22.88499999999999" y="1540.2025" as="sourcePoint" />
            <mxPoint x="168" y="1541" as="targetPoint" />
          </mxGeometry>
        </mxCell>
        <mxCell id="ZQ679UXOm5iZFMzoPjvu-34" value="thread merge" style="edgeLabel;html=1;align=center;verticalAlign=middle;resizable=0;points=[];" connectable="0" vertex="1" parent="ZQ679UXOm5iZFMzoPjvu-33">
          <mxGeometry x="-0.161" y="1" relative="1" as="geometry">
            <mxPoint x="13" y="1" as="offset" />
          </mxGeometry>
        </mxCell>
        <mxCell id="ZQ679UXOm5iZFMzoPjvu-35" value="monitor execution for error&amp;nbsp;&lt;br&gt;&amp;amp; capture exit code" style="rounded=1;whiteSpace=wrap;html=1;rotation=-90;fillColor=#d5e8d4;strokeColor=#82b366;glass=1;shadow=0;" vertex="1" parent="1">
          <mxGeometry x="182.82" y="1384.27" width="260" height="60" as="geometry" />
        </mxCell>
        <mxCell id="ZQ679UXOm5iZFMzoPjvu-36" value="" style="endArrow=classic;html=1;rounded=0;entryX=0.877;entryY=-0.008;entryDx=0;entryDy=0;entryPerimeter=0;" edge="1" parent="1">
          <mxGeometry width="50" height="50" relative="1" as="geometry">
            <mxPoint x="167.35" y="1300" as="sourcePoint" />
            <mxPoint x="282.3399999999999" y="1300.2499999999998" as="targetPoint" />
          </mxGeometry>
        </mxCell>
        <mxCell id="ZQ679UXOm5iZFMzoPjvu-37" value="go routine" style="edgeLabel;html=1;align=center;verticalAlign=middle;resizable=0;points=[];" connectable="0" vertex="1" parent="ZQ679UXOm5iZFMzoPjvu-36">
          <mxGeometry x="0.0242" relative="1" as="geometry">
            <mxPoint as="offset" />
          </mxGeometry>
        </mxCell>
        <mxCell id="ZQ679UXOm5iZFMzoPjvu-38" value="" style="endArrow=classic;html=1;rounded=0;exitX=0.068;exitY=-0.009;exitDx=0;exitDy=0;exitPerimeter=0;" edge="1" parent="1">
          <mxGeometry width="50" height="50" relative="1" as="geometry">
            <mxPoint x="282.27999999999975" y="1540.59" as="sourcePoint" />
            <mxPoint x="168" y="1541" as="targetPoint" />
          </mxGeometry>
        </mxCell>
        <mxCell id="ZQ679UXOm5iZFMzoPjvu-39" value="routine merge" style="edgeLabel;html=1;align=center;verticalAlign=middle;resizable=0;points=[];" connectable="0" vertex="1" parent="ZQ679UXOm5iZFMzoPjvu-38">
          <mxGeometry x="-0.0608" y="-1" relative="1" as="geometry">
            <mxPoint x="-4" y="1" as="offset" />
          </mxGeometry>
        </mxCell>
        <mxCell id="ZQ679UXOm5iZFMzoPjvu-42" value="" style="endArrow=classic;html=1;rounded=0;edgeStyle=orthogonalEdgeStyle;curved=1;entryX=1.008;entryY=0.43;entryDx=0;entryDy=0;entryPerimeter=0;strokeColor=#8C8C8C;" edge="1" parent="1">
          <mxGeometry width="50" height="50" relative="1" as="geometry">
            <mxPoint x="168" y="1300" as="sourcePoint" />
            <mxPoint x="481.80500000000006" y="1281.0999600000002" as="targetPoint" />
            <Array as="points">
              <mxPoint x="168" y="1260" />
              <mxPoint x="482" y="1260" />
            </Array>
          </mxGeometry>
        </mxCell>
        <mxCell id="ZQ679UXOm5iZFMzoPjvu-43" value="new thread" style="edgeLabel;html=1;align=center;verticalAlign=middle;resizable=0;points=[];" connectable="0" vertex="1" parent="ZQ679UXOm5iZFMzoPjvu-42">
          <mxGeometry x="-0.0362" y="1" relative="1" as="geometry">
            <mxPoint x="57" y="2" as="offset" />
          </mxGeometry>
        </mxCell>
        <mxCell id="rMI3Hbo40x5JovAeGuvk-2" value="" style="endArrow=none;dashed=1;html=1;rounded=0;dashPattern=1 4;jumpSize=17;strokeColor=#7FD4C5;" edge="1" parent="1">
          <mxGeometry width="50" height="50" relative="1" as="geometry">
            <mxPoint x="-30" y="1290" as="sourcePoint" />
            <mxPoint x="510" y="1280" as="targetPoint" />
          </mxGeometry>
        </mxCell>
        <mxCell id="rMI3Hbo40x5JovAeGuvk-8" style="edgeStyle=orthogonalEdgeStyle;rounded=0;orthogonalLoop=1;jettySize=auto;html=1;curved=1;" edge="1" parent="1" source="rMI3Hbo40x5JovAeGuvk-7" target="rMI3Hbo40x5JovAeGuvk-9">
          <mxGeometry relative="1" as="geometry">
            <mxPoint x="320" y="1896.9999999999995" as="targetPoint" />
          </mxGeometry>
        </mxCell>
        <mxCell id="rMI3Hbo40x5JovAeGuvk-10" value="yes" style="edgeLabel;html=1;align=center;verticalAlign=middle;resizable=0;points=[];" connectable="0" vertex="1" parent="rMI3Hbo40x5JovAeGuvk-8">
          <mxGeometry x="-0.4267" y="-1" relative="1" as="geometry">
            <mxPoint x="18" y="4" as="offset" />
          </mxGeometry>
        </mxCell>
        <mxCell id="rMI3Hbo40x5JovAeGuvk-57" style="edgeStyle=orthogonalEdgeStyle;rounded=0;orthogonalLoop=1;jettySize=auto;html=1;entryX=0.5;entryY=0;entryDx=0;entryDy=0;curved=1;" edge="1" parent="1" source="rMI3Hbo40x5JovAeGuvk-7" target="rMI3Hbo40x5JovAeGuvk-50">
          <mxGeometry relative="1" as="geometry" />
        </mxCell>
        <mxCell id="rMI3Hbo40x5JovAeGuvk-58" value="no" style="edgeLabel;html=1;align=center;verticalAlign=middle;resizable=0;points=[];" connectable="0" vertex="1" parent="rMI3Hbo40x5JovAeGuvk-57">
          <mxGeometry x="-0.0393" relative="1" as="geometry">
            <mxPoint x="21" as="offset" />
          </mxGeometry>
        </mxCell>
        <mxCell id="rMI3Hbo40x5JovAeGuvk-7" value="if &lt;br&gt;&lt;span style=&quot;background-color: rgb(13, 16, 23); color: rgb(191, 189, 182); font-family: &amp;quot;Fira Code&amp;quot;, &amp;quot;Droid Sans Mono&amp;quot;, &amp;quot;monospace&amp;quot;, monospace; white-space: pre;&quot;&gt;&lt;font style=&quot;font-size: 12px;&quot;&gt;timeout&lt;/font&gt;&lt;/span&gt;&amp;nbsp;?" style="rhombus;whiteSpace=wrap;html=1;fillColor=#ffe6cc;strokeColor=#d79b00;" vertex="1" parent="1">
          <mxGeometry x="114.01" y="1770" width="107" height="107" as="geometry" />
        </mxCell>
        <mxCell id="rMI3Hbo40x5JovAeGuvk-15" style="edgeStyle=orthogonalEdgeStyle;rounded=0;orthogonalLoop=1;jettySize=auto;html=1;entryX=0.5;entryY=0;entryDx=0;entryDy=0;" edge="1" parent="1" source="rMI3Hbo40x5JovAeGuvk-9" target="rMI3Hbo40x5JovAeGuvk-14">
          <mxGeometry relative="1" as="geometry" />
        </mxCell>
        <mxCell id="rMI3Hbo40x5JovAeGuvk-9" value="&lt;span style=&quot;background-color: rgb(13, 16, 23); color: rgb(191, 189, 182); font-family: &amp;quot;Fira Code&amp;quot;, &amp;quot;Droid Sans Mono&amp;quot;, &amp;quot;monospace&amp;quot;, monospace; white-space: pre;&quot;&gt;&lt;font style=&quot;font-size: 12px;&quot;&gt;status&lt;/font&gt;&lt;/span&gt;&amp;nbsp;= &quot;TIMEDOUT&quot;" style="rounded=1;whiteSpace=wrap;html=1;strokeColor=#18D7C4;fillColor=#B8FAFF;" vertex="1" parent="1">
          <mxGeometry x="252.82" y="1887" width="167.18" height="60" as="geometry" />
        </mxCell>
        <mxCell id="rMI3Hbo40x5JovAeGuvk-13" value="end" style="ellipse;whiteSpace=wrap;html=1;aspect=fixed;fillColor=#f8cecc;strokeColor=none;" vertex="1" parent="1">
          <mxGeometry x="296.4100000000003" y="2209.9999999999995" width="80" height="80" as="geometry" />
        </mxCell>
        <mxCell id="rMI3Hbo40x5JovAeGuvk-16" style="edgeStyle=orthogonalEdgeStyle;rounded=0;orthogonalLoop=1;jettySize=auto;html=1;entryX=0.5;entryY=0;entryDx=0;entryDy=0;curved=1;" edge="1" parent="1" source="rMI3Hbo40x5JovAeGuvk-14" target="rMI3Hbo40x5JovAeGuvk-19">
          <mxGeometry relative="1" as="geometry">
            <mxPoint x="490" y="2036.9999999999995" as="targetPoint" />
          </mxGeometry>
        </mxCell>
        <mxCell id="rMI3Hbo40x5JovAeGuvk-17" value="yes" style="edgeLabel;html=1;align=center;verticalAlign=middle;resizable=0;points=[];" connectable="0" vertex="1" parent="rMI3Hbo40x5JovAeGuvk-16">
          <mxGeometry x="-0.105" y="1" relative="1" as="geometry">
            <mxPoint x="-8" y="6" as="offset" />
          </mxGeometry>
        </mxCell>
        <mxCell id="rMI3Hbo40x5JovAeGuvk-20" style="edgeStyle=orthogonalEdgeStyle;rounded=0;orthogonalLoop=1;jettySize=auto;html=1;entryX=0.5;entryY=0;entryDx=0;entryDy=0;" edge="1" parent="1" source="rMI3Hbo40x5JovAeGuvk-14" target="rMI3Hbo40x5JovAeGuvk-13">
          <mxGeometry relative="1" as="geometry" />
        </mxCell>
        <mxCell id="rMI3Hbo40x5JovAeGuvk-21" value="no" style="edgeLabel;html=1;align=center;verticalAlign=middle;resizable=0;points=[];" connectable="0" vertex="1" parent="rMI3Hbo40x5JovAeGuvk-20">
          <mxGeometry x="-0.2161" y="-1" relative="1" as="geometry">
            <mxPoint as="offset" />
          </mxGeometry>
        </mxCell>
        <mxCell id="rMI3Hbo40x5JovAeGuvk-14" value="if &lt;br&gt;&lt;div style=&quot;color: rgb(191, 189, 182); background-color: rgb(13, 16, 23); font-family: &amp;quot;Fira Code&amp;quot;, &amp;quot;Droid Sans Mono&amp;quot;, &amp;quot;monospace&amp;quot;, monospace; line-height: 19px; white-space: pre;&quot;&gt;&lt;font style=&quot;font-size: 12px;&quot;&gt;onTimeoutCallback&lt;/font&gt;&lt;/div&gt;enabled?" style="rhombus;whiteSpace=wrap;html=1;fillColor=#ffe6cc;strokeColor=#d79b00;" vertex="1" parent="1">
          <mxGeometry x="259.36" y="1987" width="154.1" height="160.27" as="geometry" />
        </mxCell>
        <mxCell id="rMI3Hbo40x5JovAeGuvk-22" style="edgeStyle=orthogonalEdgeStyle;rounded=0;orthogonalLoop=1;jettySize=auto;html=1;entryX=1;entryY=0.5;entryDx=0;entryDy=0;curved=1;exitX=0.5;exitY=1;exitDx=0;exitDy=0;" edge="1" parent="1" source="rMI3Hbo40x5JovAeGuvk-19" target="rMI3Hbo40x5JovAeGuvk-13">
          <mxGeometry relative="1" as="geometry">
            <Array as="points">
              <mxPoint x="511" y="2250" />
            </Array>
          </mxGeometry>
        </mxCell>
        <mxCell id="rMI3Hbo40x5JovAeGuvk-19" value="execute&lt;br&gt;&lt;div style=&quot;color: rgb(191, 189, 182); background-color: rgb(13, 16, 23); font-family: &amp;quot;Fira Code&amp;quot;, &amp;quot;Droid Sans Mono&amp;quot;, &amp;quot;monospace&amp;quot;, monospace; line-height: 19px; white-space: pre;&quot;&gt;&lt;font style=&quot;font-size: 12px;&quot;&gt;onTimeoutCallback&lt;/font&gt;&lt;/div&gt;" style="rounded=1;whiteSpace=wrap;html=1;strokeColor=#18D7C4;fillColor=#B8FAFF;" vertex="1" parent="1">
          <mxGeometry x="432.82" y="2130" width="157.18" height="60" as="geometry" />
        </mxCell>
        <mxCell id="rMI3Hbo40x5JovAeGuvk-23" value="&lt;span style=&quot;background-color: rgb(13, 16, 23); color: rgb(191, 189, 182); font-family: &amp;quot;Fira Code&amp;quot;, &amp;quot;Droid Sans Mono&amp;quot;, &amp;quot;monospace&amp;quot;, monospace; font-size: 14px; white-space: pre;&quot;&gt;executionTimeNano&lt;/span&gt;&amp;nbsp;= now - start" style="rounded=1;whiteSpace=wrap;html=1;gradientColor=none;fillColor=#B8FAFF;strokeColor=#18D7C4;" vertex="1" parent="1">
          <mxGeometry x="42.05" y="1670" width="254.36" height="60" as="geometry" />
        </mxCell>
        <mxCell id="rMI3Hbo40x5JovAeGuvk-26" style="edgeStyle=orthogonalEdgeStyle;rounded=0;orthogonalLoop=1;jettySize=auto;html=1;entryX=0.504;entryY=0.01;entryDx=0;entryDy=0;entryPerimeter=0;curved=1;exitX=0;exitY=0.5;exitDx=0;exitDy=0;" edge="1" parent="1" source="rMI3Hbo40x5JovAeGuvk-25" target="rMI3Hbo40x5JovAeGuvk-28">
          <mxGeometry relative="1" as="geometry">
            <mxPoint x="-210" y="2299.9999999999995" as="targetPoint" />
          </mxGeometry>
        </mxCell>
        <mxCell id="rMI3Hbo40x5JovAeGuvk-27" value="yes" style="edgeLabel;html=1;align=center;verticalAlign=middle;resizable=0;points=[];" connectable="0" vertex="1" parent="rMI3Hbo40x5JovAeGuvk-26">
          <mxGeometry x="-0.3388" y="-2" relative="1" as="geometry">
            <mxPoint x="17" y="22" as="offset" />
          </mxGeometry>
        </mxCell>
        <mxCell id="rMI3Hbo40x5JovAeGuvk-35" style="edgeStyle=orthogonalEdgeStyle;rounded=0;orthogonalLoop=1;jettySize=auto;html=1;entryX=0.499;entryY=-0.028;entryDx=0;entryDy=0;entryPerimeter=0;exitX=1;exitY=0.5;exitDx=0;exitDy=0;curved=1;" edge="1" parent="1" source="rMI3Hbo40x5JovAeGuvk-25" target="rMI3Hbo40x5JovAeGuvk-36">
          <mxGeometry relative="1" as="geometry">
            <mxPoint x="80" y="2310" as="targetPoint" />
          </mxGeometry>
        </mxCell>
        <mxCell id="rMI3Hbo40x5JovAeGuvk-37" value="no" style="edgeLabel;html=1;align=center;verticalAlign=middle;resizable=0;points=[];" connectable="0" vertex="1" parent="rMI3Hbo40x5JovAeGuvk-35">
          <mxGeometry x="-0.5821" y="-1" relative="1" as="geometry">
            <mxPoint as="offset" />
          </mxGeometry>
        </mxCell>
        <mxCell id="rMI3Hbo40x5JovAeGuvk-25" value="is&lt;br&gt;&lt;span style=&quot;background-color: rgb(13, 16, 23); color: rgb(191, 189, 182); font-family: &amp;quot;Fira Code&amp;quot;, &amp;quot;Droid Sans Mono&amp;quot;, &amp;quot;monospace&amp;quot;, monospace; white-space: pre;&quot;&gt;&lt;font style=&quot;font-size: 12px;&quot;&gt;exitCode&lt;/font&gt;&lt;/span&gt;&amp;nbsp;= 0" style="rhombus;whiteSpace=wrap;html=1;fillColor=#ffe6cc;strokeColor=#d79b00;" vertex="1" parent="1">
          <mxGeometry x="-130" y="2120" width="142.04" height="133" as="geometry" />
        </mxCell>
        <mxCell id="rMI3Hbo40x5JovAeGuvk-44" style="edgeStyle=orthogonalEdgeStyle;rounded=0;orthogonalLoop=1;jettySize=auto;html=1;entryX=0.5;entryY=0;entryDx=0;entryDy=0;" edge="1" parent="1" source="rMI3Hbo40x5JovAeGuvk-28" target="rMI3Hbo40x5JovAeGuvk-31">
          <mxGeometry relative="1" as="geometry" />
        </mxCell>
        <mxCell id="rMI3Hbo40x5JovAeGuvk-49" value="no" style="edgeLabel;html=1;align=center;verticalAlign=middle;resizable=0;points=[];" connectable="0" vertex="1" parent="rMI3Hbo40x5JovAeGuvk-44">
          <mxGeometry x="0.0158" y="1" relative="1" as="geometry">
            <mxPoint x="-1" y="-7" as="offset" />
          </mxGeometry>
        </mxCell>
        <mxCell id="rMI3Hbo40x5JovAeGuvk-28" value="is&lt;br&gt;&lt;div style=&quot;color: rgb(191, 189, 182); background-color: rgb(13, 16, 23); font-family: &amp;quot;Fira Code&amp;quot;, &amp;quot;Droid Sans Mono&amp;quot;, &amp;quot;monospace&amp;quot;, monospace; line-height: 19px; white-space: pre;&quot;&gt;&lt;font style=&quot;font-size: 12px;&quot;&gt;onCompleteCallback&lt;/font&gt;&lt;/div&gt;enabled ?" style="rhombus;whiteSpace=wrap;html=1;fillColor=#ffe6cc;strokeColor=#d79b00;" vertex="1" parent="1">
          <mxGeometry x="-301.15" y="2265" width="171.15" height="178" as="geometry" />
        </mxCell>
        <mxCell id="rMI3Hbo40x5JovAeGuvk-43" style="edgeStyle=orthogonalEdgeStyle;rounded=0;orthogonalLoop=1;jettySize=auto;html=1;entryX=0;entryY=0.5;entryDx=0;entryDy=0;exitX=0.5;exitY=1;exitDx=0;exitDy=0;curved=1;" edge="1" parent="1" source="rMI3Hbo40x5JovAeGuvk-29" target="rMI3Hbo40x5JovAeGuvk-31">
          <mxGeometry relative="1" as="geometry" />
        </mxCell>
        <mxCell id="rMI3Hbo40x5JovAeGuvk-29" value="execute&lt;br&gt;&lt;div style=&quot;color: rgb(191, 189, 182); background-color: rgb(13, 16, 23); font-family: &amp;quot;Fira Code&amp;quot;, &amp;quot;Droid Sans Mono&amp;quot;, &amp;quot;monospace&amp;quot;, monospace; line-height: 19px; white-space: pre;&quot;&gt;&lt;font style=&quot;font-size: 12px;&quot;&gt;onCompleteCallback&lt;/font&gt;&lt;/div&gt;" style="rounded=1;whiteSpace=wrap;html=1;fillColor=#B8FAFF;strokeColor=#18D7C4;" vertex="1" parent="1">
          <mxGeometry x="-440" y="2443" width="147" height="60" as="geometry" />
        </mxCell>
        <mxCell id="rMI3Hbo40x5JovAeGuvk-30" style="edgeStyle=orthogonalEdgeStyle;rounded=0;orthogonalLoop=1;jettySize=auto;html=1;entryX=0.472;entryY=-0.01;entryDx=0;entryDy=0;entryPerimeter=0;curved=1;exitX=0;exitY=0.5;exitDx=0;exitDy=0;" edge="1" parent="1" source="rMI3Hbo40x5JovAeGuvk-28" target="rMI3Hbo40x5JovAeGuvk-29">
          <mxGeometry relative="1" as="geometry" />
        </mxCell>
        <mxCell id="rMI3Hbo40x5JovAeGuvk-33" value="yes" style="edgeLabel;html=1;align=center;verticalAlign=middle;resizable=0;points=[];" connectable="0" vertex="1" parent="rMI3Hbo40x5JovAeGuvk-30">
          <mxGeometry x="-0.2759" y="-1" relative="1" as="geometry">
            <mxPoint as="offset" />
          </mxGeometry>
        </mxCell>
        <mxCell id="rMI3Hbo40x5JovAeGuvk-31" value="end" style="ellipse;whiteSpace=wrap;html=1;aspect=fixed;fillColor=#f8cecc;strokeColor=none;shadow=0;" vertex="1" parent="1">
          <mxGeometry x="-255.57999999999964" y="2539.9999999999995" width="80" height="80" as="geometry" />
        </mxCell>
        <mxCell id="rMI3Hbo40x5JovAeGuvk-40" style="edgeStyle=orthogonalEdgeStyle;rounded=0;orthogonalLoop=1;jettySize=auto;html=1;entryX=0.5;entryY=0;entryDx=0;entryDy=0;curved=1;exitX=0;exitY=0.5;exitDx=0;exitDy=0;" edge="1" parent="1" source="rMI3Hbo40x5JovAeGuvk-36" target="rMI3Hbo40x5JovAeGuvk-38">
          <mxGeometry relative="1" as="geometry" />
        </mxCell>
        <mxCell id="rMI3Hbo40x5JovAeGuvk-47" value="yes" style="edgeLabel;html=1;align=center;verticalAlign=middle;resizable=0;points=[];" connectable="0" vertex="1" parent="rMI3Hbo40x5JovAeGuvk-40">
          <mxGeometry x="-0.4365" y="-3" relative="1" as="geometry">
            <mxPoint as="offset" />
          </mxGeometry>
        </mxCell>
        <mxCell id="rMI3Hbo40x5JovAeGuvk-46" style="edgeStyle=orthogonalEdgeStyle;rounded=0;orthogonalLoop=1;jettySize=auto;html=1;entryX=0.5;entryY=0;entryDx=0;entryDy=0;" edge="1" parent="1" source="rMI3Hbo40x5JovAeGuvk-36" target="rMI3Hbo40x5JovAeGuvk-41">
          <mxGeometry relative="1" as="geometry" />
        </mxCell>
        <mxCell id="rMI3Hbo40x5JovAeGuvk-48" value="no" style="edgeLabel;html=1;align=center;verticalAlign=middle;resizable=0;points=[];" connectable="0" vertex="1" parent="rMI3Hbo40x5JovAeGuvk-46">
          <mxGeometry x="-0.169" y="-1" relative="1" as="geometry">
            <mxPoint as="offset" />
          </mxGeometry>
        </mxCell>
        <mxCell id="rMI3Hbo40x5JovAeGuvk-36" value="is&lt;br&gt;&lt;div style=&quot;color: rgb(191, 189, 182); background-color: rgb(13, 16, 23); font-family: &amp;quot;Fira Code&amp;quot;, &amp;quot;Droid Sans Mono&amp;quot;, &amp;quot;monospace&amp;quot;, monospace; line-height: 19px; white-space: pre;&quot;&gt;&lt;font style=&quot;font-size: 12px;&quot;&gt;onFailCallback&lt;/font&gt;&lt;/div&gt;enabled ?" style="rhombus;whiteSpace=wrap;html=1;fillColor=#ffe6cc;strokeColor=#d79b00;" vertex="1" parent="1">
          <mxGeometry x="-10" y="2285" width="144.13" height="138" as="geometry" />
        </mxCell>
        <mxCell id="rMI3Hbo40x5JovAeGuvk-45" style="edgeStyle=orthogonalEdgeStyle;rounded=0;orthogonalLoop=1;jettySize=auto;html=1;entryX=0;entryY=0.5;entryDx=0;entryDy=0;exitX=0.469;exitY=1.01;exitDx=0;exitDy=0;exitPerimeter=0;curved=1;" edge="1" parent="1" source="rMI3Hbo40x5JovAeGuvk-38" target="rMI3Hbo40x5JovAeGuvk-41">
          <mxGeometry relative="1" as="geometry" />
        </mxCell>
        <mxCell id="rMI3Hbo40x5JovAeGuvk-38" value="execute&lt;br&gt;&lt;div style=&quot;color: rgb(191, 189, 182); background-color: rgb(13, 16, 23); font-family: &amp;quot;Fira Code&amp;quot;, &amp;quot;Droid Sans Mono&amp;quot;, &amp;quot;monospace&amp;quot;, monospace; line-height: 19px; white-space: pre;&quot;&gt;&lt;font style=&quot;font-size: 12px;&quot;&gt;onFailCallback&lt;/font&gt;&lt;/div&gt;" style="rounded=1;whiteSpace=wrap;html=1;fillColor=#B8FAFF;strokeColor=#18D7C4;" vertex="1" parent="1">
          <mxGeometry x="-118.98000000000006" y="2441.5" width="120" height="60" as="geometry" />
        </mxCell>
        <mxCell id="rMI3Hbo40x5JovAeGuvk-41" value="end" style="ellipse;whiteSpace=wrap;html=1;aspect=fixed;fillColor=#f8cecc;strokeColor=none;" vertex="1" parent="1">
          <mxGeometry x="22.06000000000033" y="2539.9999999999995" width="80" height="80" as="geometry" />
        </mxCell>
        <mxCell id="rMI3Hbo40x5JovAeGuvk-52" style="edgeStyle=orthogonalEdgeStyle;rounded=0;orthogonalLoop=1;jettySize=auto;html=1;entryX=0.5;entryY=0;entryDx=0;entryDy=0;exitX=0;exitY=0.5;exitDx=0;exitDy=0;curved=1;" edge="1" parent="1" source="rMI3Hbo40x5JovAeGuvk-50" target="rMI3Hbo40x5JovAeGuvk-59">
          <mxGeometry relative="1" as="geometry">
            <mxPoint x="-382.81999999999994" y="1990" as="targetPoint" />
          </mxGeometry>
        </mxCell>
        <mxCell id="rMI3Hbo40x5JovAeGuvk-54" value="present" style="edgeLabel;html=1;align=center;verticalAlign=middle;resizable=0;points=[];" connectable="0" vertex="1" parent="rMI3Hbo40x5JovAeGuvk-52">
          <mxGeometry x="-0.2383" relative="1" as="geometry">
            <mxPoint x="24" as="offset" />
          </mxGeometry>
        </mxCell>
        <mxCell id="rMI3Hbo40x5JovAeGuvk-50" value="if &lt;br&gt;&lt;span style=&quot;background-color: rgb(13, 16, 23); color: rgb(191, 189, 182); font-family: &amp;quot;Fira Code&amp;quot;, &amp;quot;Droid Sans Mono&amp;quot;, &amp;quot;monospace&amp;quot;, monospace; white-space: pre;&quot;&gt;&lt;font style=&quot;font-size: 12px;&quot;&gt;successCriteria&lt;/font&gt;&lt;/span&gt;&amp;nbsp;?" style="rhombus;whiteSpace=wrap;html=1;fillColor=#ffe6cc;strokeColor=default;" vertex="1" parent="1">
          <mxGeometry x="-140.48000000000002" y="1867" width="163" height="163" as="geometry" />
        </mxCell>
        <mxCell id="rMI3Hbo40x5JovAeGuvk-55" style="edgeStyle=orthogonalEdgeStyle;rounded=0;orthogonalLoop=1;jettySize=auto;html=1;entryX=0.497;entryY=-0.012;entryDx=0;entryDy=0;entryPerimeter=0;" edge="1" parent="1" source="rMI3Hbo40x5JovAeGuvk-50" target="rMI3Hbo40x5JovAeGuvk-25">
          <mxGeometry relative="1" as="geometry" />
        </mxCell>
        <mxCell id="rMI3Hbo40x5JovAeGuvk-56" value="absent" style="edgeLabel;html=1;align=center;verticalAlign=middle;resizable=0;points=[];" connectable="0" vertex="1" parent="rMI3Hbo40x5JovAeGuvk-55">
          <mxGeometry x="-0.2592" y="-3" relative="1" as="geometry">
            <mxPoint as="offset" />
          </mxGeometry>
        </mxCell>
        <mxCell id="rMI3Hbo40x5JovAeGuvk-69" style="edgeStyle=orthogonalEdgeStyle;rounded=0;orthogonalLoop=1;jettySize=auto;html=1;entryX=0.5;entryY=0;entryDx=0;entryDy=0;curved=1;" edge="1" parent="1" source="rMI3Hbo40x5JovAeGuvk-59" target="rMI3Hbo40x5JovAeGuvk-68">
          <mxGeometry relative="1" as="geometry" />
        </mxCell>
        <mxCell id="rMI3Hbo40x5JovAeGuvk-71" value="yes" style="edgeLabel;html=1;align=center;verticalAlign=middle;resizable=0;points=[];" connectable="0" vertex="1" parent="rMI3Hbo40x5JovAeGuvk-69">
          <mxGeometry x="-0.3036" y="-1" relative="1" as="geometry">
            <mxPoint as="offset" />
          </mxGeometry>
        </mxCell>
        <mxCell id="rMI3Hbo40x5JovAeGuvk-59" value="is&lt;div&gt;&lt;span style=&quot;color: rgb(191, 189, 182); font-family: &amp;quot;Fira Code&amp;quot;, &amp;quot;Droid Sans Mono&amp;quot;, &amp;quot;monospace&amp;quot;, monospace; white-space: pre; background-color: rgb(13, 16, 23);&quot;&gt;successCriteria&lt;/span&gt;&lt;br&gt;found in&lt;br&gt;&lt;div style=&quot;color: rgb(191, 189, 182); background-color: rgb(13, 16, 23); font-family: &amp;quot;Fira Code&amp;quot;, &amp;quot;Droid Sans Mono&amp;quot;, &amp;quot;monospace&amp;quot;, monospace; line-height: 19px; white-space: pre;&quot;&gt;&lt;font style=&quot;font-size: 12px;&quot;&gt;logBuffer&lt;br&gt;&lt;/font&gt;&lt;/div&gt;&lt;/div&gt;" style="rhombus;whiteSpace=wrap;html=1;fillColor=#ffe6cc;strokeColor=#d79b00;" vertex="1" parent="1">
          <mxGeometry x="-440" y="2007" width="173" height="173" as="geometry" />
        </mxCell>
        <mxCell id="rMI3Hbo40x5JovAeGuvk-66" style="edgeStyle=orthogonalEdgeStyle;rounded=0;orthogonalLoop=1;jettySize=auto;html=1;entryX=0.5;entryY=0;entryDx=0;entryDy=0;exitX=0;exitY=0.5;exitDx=0;exitDy=0;curved=1;" edge="1" parent="1" source="rMI3Hbo40x5JovAeGuvk-61" target="rMI3Hbo40x5JovAeGuvk-65">
          <mxGeometry relative="1" as="geometry" />
        </mxCell>
        <mxCell id="rMI3Hbo40x5JovAeGuvk-75" value="yes" style="edgeLabel;html=1;align=center;verticalAlign=middle;resizable=0;points=[];" connectable="0" vertex="1" parent="rMI3Hbo40x5JovAeGuvk-66">
          <mxGeometry x="-0.4457" y="2" relative="1" as="geometry">
            <mxPoint as="offset" />
          </mxGeometry>
        </mxCell>
        <mxCell id="rMI3Hbo40x5JovAeGuvk-73" style="edgeStyle=orthogonalEdgeStyle;rounded=0;orthogonalLoop=1;jettySize=auto;html=1;entryX=0.5;entryY=0;entryDx=0;entryDy=0;" edge="1" parent="1" source="rMI3Hbo40x5JovAeGuvk-61" target="rMI3Hbo40x5JovAeGuvk-72">
          <mxGeometry relative="1" as="geometry" />
        </mxCell>
        <mxCell id="rMI3Hbo40x5JovAeGuvk-76" value="no" style="edgeLabel;html=1;align=center;verticalAlign=middle;resizable=0;points=[];" connectable="0" vertex="1" parent="rMI3Hbo40x5JovAeGuvk-73">
          <mxGeometry x="-0.1341" y="-2" relative="1" as="geometry">
            <mxPoint as="offset" />
          </mxGeometry>
        </mxCell>
        <mxCell id="rMI3Hbo40x5JovAeGuvk-61" value="is&lt;br&gt;&lt;div style=&quot;color: rgb(191, 189, 182); background-color: rgb(13, 16, 23); font-family: &amp;quot;Fira Code&amp;quot;, &amp;quot;Droid Sans Mono&amp;quot;, &amp;quot;monospace&amp;quot;, monospace; line-height: 19px; white-space: pre;&quot;&gt;&lt;font style=&quot;font-size: 12px;&quot;&gt;onSuccessCallback&lt;/font&gt;&lt;/div&gt;enabled ?" style="rhombus;whiteSpace=wrap;html=1;fillColor=#ffe6cc;strokeColor=#d79b00;" vertex="1" parent="1">
          <mxGeometry x="-630" y="2283" width="173" height="173" as="geometry" />
        </mxCell>
        <mxCell id="rMI3Hbo40x5JovAeGuvk-62" style="edgeStyle=orthogonalEdgeStyle;rounded=0;orthogonalLoop=1;jettySize=auto;html=1;entryX=0.5;entryY=0;entryDx=0;entryDy=0;curved=1;exitX=1;exitY=0.5;exitDx=0;exitDy=0;" edge="1" parent="1" source="rMI3Hbo40x5JovAeGuvk-59" target="rMI3Hbo40x5JovAeGuvk-28">
          <mxGeometry relative="1" as="geometry">
            <mxPoint x="-296.0043478260869" y="2067.504347826087" as="sourcePoint" />
            <mxPoint x="-206.69000000000017" y="2311" as="targetPoint" />
          </mxGeometry>
        </mxCell>
        <mxCell id="rMI3Hbo40x5JovAeGuvk-63" value="no" style="edgeLabel;html=1;align=center;verticalAlign=middle;resizable=0;points=[];" connectable="0" vertex="1" parent="rMI3Hbo40x5JovAeGuvk-62">
          <mxGeometry x="0.1411" y="-12" relative="1" as="geometry">
            <mxPoint as="offset" />
          </mxGeometry>
        </mxCell>
        <mxCell id="rMI3Hbo40x5JovAeGuvk-74" style="edgeStyle=orthogonalEdgeStyle;rounded=0;orthogonalLoop=1;jettySize=auto;html=1;entryX=0;entryY=0.5;entryDx=0;entryDy=0;exitX=0.5;exitY=1;exitDx=0;exitDy=0;curved=1;" edge="1" parent="1" source="rMI3Hbo40x5JovAeGuvk-65" target="rMI3Hbo40x5JovAeGuvk-72">
          <mxGeometry relative="1" as="geometry" />
        </mxCell>
        <mxCell id="rMI3Hbo40x5JovAeGuvk-65" value="execute&lt;br&gt;&lt;span style=&quot;color: rgb(191, 189, 182); font-family: &amp;quot;Fira Code&amp;quot;, &amp;quot;Droid Sans Mono&amp;quot;, &amp;quot;monospace&amp;quot;, monospace; white-space: pre; background-color: rgb(13, 16, 23);&quot;&gt;onSuccessCallback&lt;/span&gt;" style="rounded=1;whiteSpace=wrap;html=1;fillColor=#B8FAFF;strokeColor=#18D7C4;" vertex="1" parent="1">
          <mxGeometry x="-750" y="2440" width="140" height="63" as="geometry" />
        </mxCell>
        <mxCell id="rMI3Hbo40x5JovAeGuvk-70" style="edgeStyle=orthogonalEdgeStyle;rounded=0;orthogonalLoop=1;jettySize=auto;html=1;entryX=0.5;entryY=0;entryDx=0;entryDy=0;" edge="1" parent="1" source="rMI3Hbo40x5JovAeGuvk-68" target="rMI3Hbo40x5JovAeGuvk-61">
          <mxGeometry relative="1" as="geometry" />
        </mxCell>
        <mxCell id="rMI3Hbo40x5JovAeGuvk-68" value="&lt;span style=&quot;background-color: rgb(13, 16, 23); color: rgb(191, 189, 182); font-family: &amp;quot;Fira Code&amp;quot;, &amp;quot;Droid Sans Mono&amp;quot;, &amp;quot;monospace&amp;quot;, monospace; font-size: 14px; white-space: pre;&quot;&gt;status&lt;/span&gt;&amp;nbsp;= &quot;SUCCEEDED&quot;" style="rounded=1;whiteSpace=wrap;html=1;strokeColor=#18D7C4;fillColor=#B8FAFF;" vertex="1" parent="1">
          <mxGeometry x="-627.09" y="2167" width="167.18" height="60" as="geometry" />
        </mxCell>
        <mxCell id="rMI3Hbo40x5JovAeGuvk-72" value="end" style="ellipse;whiteSpace=wrap;html=1;aspect=fixed;strokeColor=none;fillColor=#f8cecc;" vertex="1" parent="1">
          <mxGeometry x="-583.4999999999997" y="2539.9999999999995" width="80" height="80" as="geometry" />
        </mxCell>
        <mxCell id="rMI3Hbo40x5JovAeGuvk-78" value="" style="group" connectable="0" vertex="1" parent="1">
          <mxGeometry x="54.23" y="360" width="230" height="160" as="geometry" />
        </mxCell>
        <mxCell id="ZQ679UXOm5iZFMzoPjvu-2" value="" style="rounded=1;whiteSpace=wrap;html=1;fillColor=#dae8fc;strokeColor=#6c8ebf;glass=1;shadow=0;" vertex="1" parent="rMI3Hbo40x5JovAeGuvk-78">
          <mxGeometry width="230" height="160" as="geometry" />
        </mxCell>
        <mxCell id="ZQ679UXOm5iZFMzoPjvu-1" value="system-command&lt;br&gt;&lt;div style=&quot;color: rgb(191, 189, 182); background-color: rgb(13, 16, 23); font-family: &amp;quot;Fira Code&amp;quot;, &amp;quot;Droid Sans Mono&amp;quot;, &amp;quot;monospace&amp;quot;, monospace; line-height: 19px; white-space: pre;&quot;&gt;&lt;span style=&quot;color: rgb(170, 217, 76);&quot;&gt;&lt;font style=&quot;font-size: 11px;&quot;&gt; ping 8.8.8.8 -c 4 &lt;/font&gt;&lt;/span&gt;&lt;/div&gt;" style="rounded=0;whiteSpace=wrap;html=1;fillColor=#f8cecc;strokeColor=#b85450;shadow=0;" vertex="1" parent="rMI3Hbo40x5JovAeGuvk-78">
          <mxGeometry x="42.5" y="50" width="145" height="60" as="geometry" />
        </mxCell>
        <mxCell id="ZQ679UXOm5iZFMzoPjvu-3" value="runr" style="text;html=1;align=center;verticalAlign=middle;resizable=0;points=[];autosize=1;strokeColor=none;fillColor=none;" vertex="1" parent="rMI3Hbo40x5JovAeGuvk-78">
          <mxGeometry x="10" width="40" height="30" as="geometry" />
        </mxCell>
        <mxCell id="rMI3Hbo40x5JovAeGuvk-83" style="edgeStyle=orthogonalEdgeStyle;rounded=0;orthogonalLoop=1;jettySize=auto;html=1;entryX=0.5;entryY=0;entryDx=0;entryDy=0;curved=1;" edge="1" parent="1" source="rMI3Hbo40x5JovAeGuvk-80" target="ZQ679UXOm5iZFMzoPjvu-11">
          <mxGeometry relative="1" as="geometry" />
        </mxCell>
        <mxCell id="rMI3Hbo40x5JovAeGuvk-87" value="yes" style="edgeLabel;html=1;align=center;verticalAlign=middle;resizable=0;points=[];" connectable="0" vertex="1" parent="rMI3Hbo40x5JovAeGuvk-83">
          <mxGeometry x="-0.1987" y="2" relative="1" as="geometry">
            <mxPoint y="6" as="offset" />
          </mxGeometry>
        </mxCell>
        <mxCell id="rMI3Hbo40x5JovAeGuvk-90" style="edgeStyle=orthogonalEdgeStyle;rounded=0;orthogonalLoop=1;jettySize=auto;html=1;entryX=0.5;entryY=0;entryDx=0;entryDy=0;" edge="1" parent="1" source="rMI3Hbo40x5JovAeGuvk-80" target="rMI3Hbo40x5JovAeGuvk-84">
          <mxGeometry relative="1" as="geometry" />
        </mxCell>
        <mxCell id="rMI3Hbo40x5JovAeGuvk-94" value="no" style="edgeLabel;html=1;align=center;verticalAlign=middle;resizable=0;points=[];" connectable="0" vertex="1" parent="rMI3Hbo40x5JovAeGuvk-90">
          <mxGeometry x="-0.2767" relative="1" as="geometry">
            <mxPoint as="offset" />
          </mxGeometry>
        </mxCell>
        <mxCell id="rMI3Hbo40x5JovAeGuvk-80" value="if &lt;br&gt;&lt;span style=&quot;background-color: rgb(13, 16, 23); color: rgb(191, 189, 182); font-family: &amp;quot;Fira Code&amp;quot;, &amp;quot;Droid Sans Mono&amp;quot;, &amp;quot;monospace&amp;quot;, monospace; white-space: pre;&quot;&gt;&lt;font style=&quot;font-size: 12px;&quot;&gt;waitingPeriod&lt;/font&gt;&lt;/span&gt;&amp;nbsp;?" style="rhombus;whiteSpace=wrap;html=1;fillColor=#ffe6cc;strokeColor=#d79b00;" vertex="1" parent="1">
          <mxGeometry x="93" y="615" width="150" height="150" as="geometry" />
        </mxCell>
        <mxCell id="rMI3Hbo40x5JovAeGuvk-81" style="edgeStyle=orthogonalEdgeStyle;rounded=0;orthogonalLoop=1;jettySize=auto;html=1;entryX=0.5;entryY=0;entryDx=0;entryDy=0;" edge="1" parent="1" source="ZQ679UXOm5iZFMzoPjvu-2" target="rMI3Hbo40x5JovAeGuvk-80">
          <mxGeometry relative="1" as="geometry" />
        </mxCell>
        <mxCell id="rMI3Hbo40x5JovAeGuvk-82" value="&lt;span style=&quot;color: rgb(255, 180, 84); font-family: &amp;quot;Fira Code&amp;quot;, &amp;quot;Droid Sans Mono&amp;quot;, &amp;quot;monospace&amp;quot;, monospace; white-space-collapse: preserve; background-color: rgb(13, 16, 23);&quot;&gt;&lt;font style=&quot;font-size: 12px;&quot;&gt;.Execute()&lt;/font&gt;&lt;/span&gt;" style="edgeLabel;html=1;align=center;verticalAlign=middle;resizable=0;points=[];" connectable="0" vertex="1" parent="rMI3Hbo40x5JovAeGuvk-81">
          <mxGeometry x="0.1441" y="1" relative="1" as="geometry">
            <mxPoint x="-1" y="-14" as="offset" />
          </mxGeometry>
        </mxCell>
        <mxCell id="rMI3Hbo40x5JovAeGuvk-86" style="edgeStyle=orthogonalEdgeStyle;rounded=0;orthogonalLoop=1;jettySize=auto;html=1;entryX=0.5;entryY=0;entryDx=0;entryDy=0;curved=1;" edge="1" parent="1" source="rMI3Hbo40x5JovAeGuvk-84" target="ZQ679UXOm5iZFMzoPjvu-12">
          <mxGeometry relative="1" as="geometry" />
        </mxCell>
        <mxCell id="rMI3Hbo40x5JovAeGuvk-88" value="yes" style="edgeLabel;html=1;align=center;verticalAlign=middle;resizable=0;points=[];" connectable="0" vertex="1" parent="rMI3Hbo40x5JovAeGuvk-86">
          <mxGeometry x="-0.2274" y="-1" relative="1" as="geometry">
            <mxPoint y="5" as="offset" />
          </mxGeometry>
        </mxCell>
        <mxCell id="rMI3Hbo40x5JovAeGuvk-91" style="edgeStyle=orthogonalEdgeStyle;rounded=0;orthogonalLoop=1;jettySize=auto;html=1;entryX=0.5;entryY=0;entryDx=0;entryDy=0;" edge="1" parent="1" source="rMI3Hbo40x5JovAeGuvk-84" target="ZQ679UXOm5iZFMzoPjvu-21">
          <mxGeometry relative="1" as="geometry" />
        </mxCell>
        <mxCell id="rMI3Hbo40x5JovAeGuvk-93" value="no" style="edgeLabel;html=1;align=center;verticalAlign=middle;resizable=0;points=[];" connectable="0" vertex="1" parent="rMI3Hbo40x5JovAeGuvk-91">
          <mxGeometry x="-0.652" y="1" relative="1" as="geometry">
            <mxPoint as="offset" />
          </mxGeometry>
        </mxCell>
        <mxCell id="rMI3Hbo40x5JovAeGuvk-84" value="if &lt;br&gt;&lt;span style=&quot;background-color: rgb(13, 16, 23); color: rgb(191, 189, 182); font-family: &amp;quot;Fira Code&amp;quot;, &amp;quot;Droid Sans Mono&amp;quot;, &amp;quot;monospace&amp;quot;, monospace; white-space: pre;&quot;&gt;&lt;font style=&quot;font-size: 12px;&quot;&gt;logFile&lt;/font&gt;&lt;/span&gt;&amp;nbsp;?" style="rhombus;whiteSpace=wrap;html=1;fillColor=#ffe6cc;strokeColor=#d79b00;" vertex="1" parent="1">
          <mxGeometry x="93" y="850" width="150" height="150" as="geometry" />
        </mxCell>
        <mxCell id="rMI3Hbo40x5JovAeGuvk-85" value="" style="group" connectable="0" vertex="1" parent="1">
          <mxGeometry x="-84.61999999999999" y="980" width="175" height="50" as="geometry" />
        </mxCell>
        <mxCell id="rMI3Hbo40x5JovAeGuvk-92" style="edgeStyle=orthogonalEdgeStyle;rounded=0;orthogonalLoop=1;jettySize=auto;html=1;exitX=0.5;exitY=1;exitDx=0;exitDy=0;curved=1;" edge="1" parent="rMI3Hbo40x5JovAeGuvk-85" source="ZQ679UXOm5iZFMzoPjvu-12">
          <mxGeometry relative="1" as="geometry">
            <mxPoint x="254.62" y="100" as="targetPoint" />
            <Array as="points">
              <mxPoint x="88" y="100" />
            </Array>
          </mxGeometry>
        </mxCell>
        <mxCell id="ZQ679UXOm5iZFMzoPjvu-12" value="Create Logfile&amp;nbsp; &amp;nbsp; &amp;nbsp; &amp;nbsp; &amp;nbsp;" style="rounded=1;whiteSpace=wrap;html=1;" vertex="1" parent="rMI3Hbo40x5JovAeGuvk-85">
          <mxGeometry width="175" height="50" as="geometry" />
        </mxCell>
        <mxCell id="ZQ679UXOm5iZFMzoPjvu-17" value="" style="verticalLabelPosition=bottom;html=1;verticalAlign=top;align=center;strokeColor=none;fillColor=#00BEF2;shape=mxgraph.azure.file_2;pointerEvents=1;" vertex="1" parent="rMI3Hbo40x5JovAeGuvk-85">
          <mxGeometry x="139.31" y="5" width="30" height="40" as="geometry" />
        </mxCell>
        <mxCell id="rMI3Hbo40x5JovAeGuvk-95" value="" style="group" connectable="0" vertex="1" parent="1">
          <mxGeometry x="456.005" y="1282.185" width="60" height="135.6300000000001" as="geometry" />
        </mxCell>
        <mxCell id="ZQ679UXOm5iZFMzoPjvu-41" value="timeout&amp;nbsp; &amp;nbsp; &amp;nbsp; &amp;nbsp; &amp;nbsp; &amp;nbsp;&amp;nbsp;&lt;br&gt;timer&amp;nbsp; &amp;nbsp; &amp;nbsp; &amp;nbsp; &amp;nbsp; &amp;nbsp; &amp;nbsp; &amp;nbsp;" style="rounded=1;whiteSpace=wrap;html=1;rotation=-90;fillColor=#f5f5f5;fontColor=#333333;strokeColor=#8C8C8C;glass=1;" vertex="1" parent="rMI3Hbo40x5JovAeGuvk-95">
          <mxGeometry x="-37.815" y="37.815000000000055" width="135.63" height="60" as="geometry" />
        </mxCell>
        <mxCell id="ZQ679UXOm5iZFMzoPjvu-40" value="" style="shape=image;verticalLabelPosition=bottom;labelBackgroundColor=default;verticalAlign=top;aspect=fixed;imageAspect=0;image=data:image/png,iVBORw0KGgoAAAANSUhEUgAAAgAAAAIACAYAAAD0eNT6AAAACXBIWXMAADsOAAA7DgHMtqGDAAAAGXRFWHRTb2Z0d2FyZQB3d3cuaW5rc2NhcGUub3Jnm+48GgAAIABJREFUeJzs3Xl4VOXZP/DvfWZCwpaETZRkBiQJCLhAAiouLRWYSVDQV6WKilVIgkvRal1qWzX27d7X1oqgZCJaccddIZmAFncEMiAgKiYCmQRU1kxYss15fn+A/al1yTnnGbLM93NdXu11Ofd9bryYnG/O8jwAEREREREREREREREREREREREREREREREREREREREREREREREREREREREREREREREREREREREREREREREREREREREREREREREREREREREREREREREREREREREREREREREREREREREREREREREREREREREREREREREREREREREREREREREREREREREREREREREREREREREREREREREREREREREREREREREREREREREREREREREREREREREREREREREREREREREREREREREREREREREREREREREREREREREREREREREREVF7J209AMXegMmFfd2N5sC2noOIOoaWRGPrtpeLd7b1HBRb7rYegGLP3Wier0Tmt/UcRNQxuBvNWQCK23oOii2jrQcgIiKiI48BgIiIKA4xABAREcUhBgAiIqI4xABAREQUhxgAiIiI4hADABERURxiACAiIopDDABERERxiAGAiIgoDnEp4DhgGrJDFEJtPQcRdQymITvaegYiIiIiIiIiIiIiIiKyRdp6AOqY0nPzLwOMM1v7eVHmo+FgyZuxnImoM/D4889UYlzW+grzzZqykkdjNxF1VnwIkGwyzhSlClv7aVGoAMAAQPQDRGEY0PrvlhIDABgAyDK+BkhERBSHGACIiIjiEAMAERFRHGIAICIiikMMAERERHGIAYCIiCgOMQAQERHFIQYAIiKiOMQAQEREFIcYAIiIiOIQAwAREVEcYgAgIiKKQwwAREREcYgBgIiIKA4xABAREcUhBgAiIqI4xABAREQUhxgAiIiI4hADABERURxiACAiIopDDABERERxiAGAiIgoDjEAEBERxSEGACIiojjEAEBERBSHGACIiIjiEAMAERFRHGIAICIiikMMAERERHGIAYCIiCgOMQAQERHFIQYAIiKiOMQAQEREFIcYAIiIiOIQAwAREVEcYgAgIiKKQwwAREREcYgBgIiIKA4xABAREcUhBgAiIqI4xABAREQUhxgAiIiI4hADABERURxiACAiIopDDABERERxiAGAiIgoDjEAEBERxSEGACIiojjEAEBERBSHGACIiIjiEAMAERFRHGIAICIiikMMAERERHGIAYCIiCgOMQAQERHFIQYAIiKiOMQAQEREFIcYAIiIiOIQAwAREVEcYgAgIiKKQwwAREREcYgBgIiIKA4xABAREcUhBgAiIqI4xABAREQUhxgAiIiI4hADABERURxiACAiIopDDABERERxiAGAiIgoDjEAEBERxSEGACIiojjEAEC2iKmUpQLDkBiNQtS5WPyuWP4uEh3GAEC2KKhGiyWJMRmEqLNRZldLnxc5GKNJqJNjACB7LP/QUd1jMwhR56KUYem7osRsiNUs1LkxAJAtAhWx8nnTVEfHahaiTkWsfVcM06iL1SjUuTEAkF3brXxYRLyxGoSok7H6XbH0XST6EgMA2aLgsvpD56SYDELU+Yy08mGlGADIHgYAssWloh9bLBmU7p/ZOybDEHUSaeOv7QOLVwDcCZa/i0QAGADIpq3lJVsA7LFQIgouXgUg+h4uV2O2xZI9m5c8WB2TYajTYwAguxSA960UuKBOjtEsRJ2CEoyx+Pk1OPRdJLLM3dYDUAcmWAOFca39uBJMBvCX2A30/by5hWeYphoFqEyIZAjANxMIELUNSj4B8Ikotaq6vKSiDYeZYunTQChWk1DnxwBAtonCGku/eiiMHTTpmqO3LJn3Waxm+qZB465IMhPdP1VKblJKnSACAFyUkL5CSc7//78Cj7+gQqDurU6uewyLFkWP1BjHjs/v3wKLVwCUrInVPNT58RYA2RZ14T2LJUZLtOWcmAzzLdJyZ41tSUz4SEH+BcEJR+q41OHlKMi/PJHUd9PPuSrtSB00mmCcB6s/k01ZFZtpKB4wAJBttUsCmxTwkZUagTo/VvN8lcdXeIOhzDcEGHgkjked0hhpir7n9eXn/PBHnVPWvxsf1iyd/0lMhqG4wABATr1o8fO5aZMKhsRkksM8ufnTIOpu8BYXOSVIUyKvp/lnxfQNlnT/zEwoTLBWJc/HZhqKFwwA5IgSw2oAECOKWTEZBkCaf9ZJUFIC3ugnfbobMB9Pn3qDtU16LDF+Dos/jxWiVr97RF/DAECO1J56zHuwvhTpjP6+6THZHEhgPgmgWyx6U1wbjrr6P8eicb9x1/QQ4AqLZdtqgg/y/j85wgBAzhQVmVB4yWJVahdJmq57lPSJs7IEOE53XyIAEJFrBk26Rvuro0mJTT8DkGKpSOEF8P1/cogBgBwzFR6wUXa77kuqIsriPVQiS9zRlpZpOhsOGndFEiC/slqnDDVf5xwUnxgAyLHapYG1CnjHYtkAqd93tc45lKHO0tmP6JuUQOuVq5bELtcBSLc4xRs1ZSXrdM5B8YkBgLQQUfdZLlK4LTNvdrK2GaAG6epF9G0EalRm3uxEHb0GTyhMEZi3WJ9B5uo4PhEDAGmR3LPuWVh/GLBvo3nwJm1DKCNJWy+i79Dgau6ro0+zC7cA0sdi2bZ+O/n6H+nB96RJiw8WLWry5hYWK6XutFYpN6dPnLVQz4ImylIA6JmcjEumT0Ov3qnOD00dUmhVCEuDy6BU65+nU82qL4BaJ8cd5Cs8Lgr1S+uV8kBFRXGzk2MTfYkBgLQxGpruiSYmzAbQ20JZkogZAPATOH2qWWEnBJmt/Xh9JILHH3kcM2bNwNDjYro2EbUz9fX1eOqxpxBabX0pfTeUy+HhpcVQc0XB6q2EveJ2Wb/VRvQdnP5FJvqPvVvWNqRm5bgAjLdUKBiUmpn9aV1VyNL2wt+Ukpk9DJDTrNQ0NTVh1YpVcLvdGJw5GCJcP6iz27BuA+bdez+2fLrFTnljFyPpxt2VK21vEuTxFcwQ4BdW6xTkznDp/FftHpfom/gMAGnVaDbcC+vPAkBB7j4678p+To6tRN62U2eaJl549kU8WLwAjQ2NTkagdmz/vv1YUPwQ5t17P+r21tlts7aydI7tvyT9fVcdBVF/tVG6Dcnd59g9LtG3YQAgrT4vX7gfUH+wUdq3S9T9MJws4avM1wFE7JaHVoXw1z/+DTt27LQ9ArVPG95fj/+94/dYvXK1s0Zi+XXXr1V3kWjAxoN/EKXuqln0j4MOjk30X3gLgLTzZGe839iYdAmsPQsACLJSMrN3RKpCtpY4jVStOZiamd0ASK6degDYV78Pq1aswsBBXvTtp+Vhb2pD0aiJ0ldK8cSjT6Kx0dnVHQHqVYLr0sim1fV26tN9BbNFrF/6B7DpqF1G4fbtFaad4xJ9FwYA0m7Hxo3RlKycjwFcZr1azuqZOeaV+qqKz+0cuy47Y1VyY9fJAhxjpx4AmpubsXrlKnTr1g2DBg+y24ba2O5de3D/nPux8t2VWvoJcGu4tHipnVqvv2AEgKchSLB8XKWmffRWgNv+knYMABQTkcpQVUpmzlAAJ1gsdQtwRnL2jx6ObFzRYvnAGzeqlKzsEICZcHA7QSmFDzZsRF1dBMOPHw7D4N2yjuT9Nesw9565+OLzL3S1XBduTMvHluWWfwsfMLmwm0SxFIIBVmtFyaPV5YH/s1pH1Br8qUYx425RNwDYY71SHW/U7wvYPW64LLBKlMwA0GC3x5feev0tzLlnLvbv2++0FR0BLS0teOqxpzF/7nwcOHBAV9sDEORjeZH1QArA1aRKAAy3Ubq7EYaNtQKIWodXAChm9m4O7U/OzNktwGQb5SemZI7eF6mqeNfOseuqKt7vOThnsRjiA9DLTo8v7dq5C2sr1uC44cehZ8+eTlpRDO3etRvz7p2HtWscvU36NQp4R7mQV1MaWG+nPt1feIsAN9g8+rXbyottvdlC1Bp86ZliTTz+gtcAjLNRGxWl8qrLS2zddwWAtPHX9jESmh6Hgs9ujy8lJSWh8Jp8HDd8mNNWpNnqlavx+CNPoKHB8UWfLx0QkduqTx1wH4qKbD1855lY6IOhlsDGL1oK6tWaYMlEcMtfiiEGAIq5Ab4rPS5xr4XVtwIO2Q1DTg6XFlc5GEG8/oJbFPBHOLzt5XIZuOiSi3DGj89w0oY0iUZNvPzCyygvLdfW8/Bv/VfWLglsstsj3T8zU2C8B1t/59UuleA+qeaVBxwtN0z0Q3gLgGKuvmptJDkru1IgF9ko7wqFs/sMyn5q7+aQ7RvxdVWht1MzckIQTAJge9MgpRTWr9uA/fsPYPjxw7lyYBvav28/Hpg7X9tT/lA4KILbw8l7C+pfXGh7MYgBkwv7uqLGMgAemy0uqSkttvUqLJEVDAB0REQqQx+mZuakAcixUd7bNOTHXTNGPL6/ap3tjVDqqkKbemSNfMGAMR6Ao1UHt2zegt27d+H4E0fwDYE2UFMdxj3/90/UVNfoavmWEjM3HCx5GRs32r7sPmByYTd3k1mqgJH2Oqj7w8GSv9s9PpEV/MlFR0xLF/kFgA9tlo9JkKSnMK7I0QZW28oWfJxoJJ0qCkuc9AGAFW+/h/vumYeDB7lA25G0euVq/O1Pd2P3rt062jVB4ebw2LQf1wQfrHTUaepUl6tJPa4gY2122BjtYujbHpvoB/AKAB0x9ZsqmlMyRr0OkcsBdLFaL8CQVHdkQF1V6BUnc+yuXNlYVxV6IjVrNGDv4cT/2LVzF9a/vx4nnHg8unbr6qQV/QClFJaWLcWTjz2FaNT2XjxfVW0oTK4uDzyF5cudPmwnHs/pDwK42FYxUC+G4a9ZXLzN4RxErcYAQEdUpGrNFykZoz+E4CLYeghVspMzsntFqkJlTmepq6xYnpoxegsEeXCwNfa++n2oWB3CsBHDkJzM1wRjoaWlBQsffhSvlr+mpZ8Az7oamydtfXWBlhX2PLkFfwNwjc1yJUpdVh0MvK5jFqLWYgCgIy5SVfFRSma2C5Af26kXkVNSMnOSI1Uhx49+11VVvN9zSPYyUTgHkB52+zQ2NGL1ygpkZWagVx87LzvQd9m/fz8emDMf69au09GuUYCbqoOBm/ZuWavlncH03Pw/iZJb7NYrpe4Kl5fcr2MWIisYAKhNRKpCy5OzckaIvRXSAGBsckY2IlUhx7811VeGanpknPS0iGuckz0EWpqbUbE6hIGDvOh3lKNnDOmwHV/swD3/dw+qt4Z1tPvEMMzc6rKSF3Q0AwCPr+B/BfJrBy1erDkt/VoNtyCILGMAoDZzVNbpwahqmQLgKDv1IjIuJTO7OVIVetPpLPVVayM9hucsNKIYAeA4u32i0SgqVoVw9DFH45gBtrMEAQhvDeOeu+/Fnt02VpP+b08cTIxO3r54wVYdzQDA4y+8HYI77XeQDQcTo+ccmP8PZ9sUEtnEAEBtZnflysbkYSe/KKa6EECKvS4yPjkzp2ukKrTM6Tz1myqaI9kZzyQ3JKaKyCl2+yhlYm1oLZJTUuAd6HU6Vlza9OHHuO+euTiw3/EeDI2i1LXh8pJfH/h4TZOO2QDAm1tYBKi7bDdQqI2aMv7z0pIdumYisooBgNpUZNPq+tTMnKUApgGw9Ri9AGekZI7uF6mqKHU80MaNKlIVKkvNzNkLwAebq2UqpbBh3QYAwJChWY7Hiifvr1mH4nkBNDU5Pl9vMw01qSZY8qKOuQ4TT27B36HwKwc96kwxJm5bWmx7pUEiHRgAqM3VVYV2pGSMeReipsH+0/gnp2TkHB2ZPmWJjvupdVWh95KzsjeIkil29nD/0icff4LmpmYMHTaUqwa2whvL38TChxY6fs1PoN6FaU6sCT5od92Jb23rzS34JxSud9CjScQ4tyY439YmV0Q6MQBQuxCpqtiakpFdCZHzYXePCsHo5Jr6wVmpo1/Zvr3C1gYuX5upMvRhzyHZr4qScwF0t9unqvJT7N+3HyNO4NLB36e8bCmeefIZKOUwvyk8mOjq+tMtwfl79UwGjJg6tUuS57RHAMl30MYUpaZVBwOLdc1F5AQDALUbkarQBymZ2WFAJsNmCBDgpP3dMLbLiJEv6LjnW18Zqkk9duSzyjD8AvS122frlq2IRCI4/sTjGQK+RXlpOV541vGVeiUivwsHAzfurlypZaUgAOjvm969panHc4Cc72g2pa6uLi9ZqGsuIqcYAKhdiVSF1iZnjt4twCQHbQYnRI0J3Yac9MK+yrUHnM5U9+maPT2Gj37KiGIcgDS7faq3VuPAAW4i9E0vPf8yXnnR8S/F+6HkonCw+AEdM30p3T+zd4K4ywD5iYM2CoKfh4MlWmcjcooBgNqdSFXFypSMnP0Q+By0SXMr15TUjFGL66pCji8F12+qONA1Y8QTLsM9GkCG3T5bNm/BwYMHMeJ4u8sfdC4vPf8yyhY7XtRxO0zDH15arGeZwMO8E2YMhuH6NyA2N/Y5TMkvw8HAHE1jEWnDAEDtUqQq9I6GENBXCS5LHpLzXqQy5Pj97/1V65qPyjp9UdRsGQHBMLt9tny6BQcbGjB8RPyGAKUUnnnyGSwLOn17UzZEo3JW7bJinQ/7YaCv4DRlGOUABjrrpH4TLg/8TctQRJoxAFC7FakKvZOamdMAYIL9LtJNFKalZOXURCpDa53OtLtyZTSSnfFMamPiAECy7fbZXLU5rkPAi8++iFeXOv6F/T2zpYtv26sPfKZjpi95cvOnKchzAFKd9FHAnTXBkt9rGotIOwYAatfqqkJvp2Tl7MChZwLs3jh3AzgvOSO7d2T6lHLHrwlu3KjqqkKvpGaM7gbB6XbbxGsIeOn5lxEsdbiNg6iXVXLPc2pfuTeiZ6pDXb25hUVQmAMHm0MBUAJ1YzhY8hddgxHFAgMAtXuRytCq1Izs7RA5G/ZDwKFNhGrqTz5qyOkv765c6Xj51bqqiqVOr1BsrtqMhoONGH687TsKHcorLy5G6SuO12t65KidxmUfL5urbQndfuOu6dFn6MinAcxy2EoBanY4WMJ7/tTuMQBQh1BXFapIzhxdKcC5AAwHrbKiZss5fYaOWrL3kzV1GuZ6OyVj9BeHtxS2FU42f7oZzS0tOG6Y7S0IOoSyxWWOn/ZXwF9qgoHZ27dXaHvNLy0vPz3BZQYBOHnSHwCiomRGuDwQ0DEXUawxAFCHEamqWJ+Smb0OSs51sjofBP1NJZelZGaviFSFqjXMtTo5c/Q2Ac6BzRBQ9UkVolETQ4cNdTpOu/TG8jfw7NPPOewid9QEA3doGeiwtNxZYw2F1wA4Xa+5UZS6pLo88ISOuYiOBAYA6lAiVaGPUzLGvAlR/wMgyUGrboBMS80YXVNXVfG+87kqQikZOTUQ2F7EqPKTSiQkJCAjy/Zbhu3S+2vWYeFDC52t8Ce4PRwMaH2gzuMrmCFQi2B7I6r/2CMiedXBgOP3GYmOJAYA6nAiVRVbUzNzXgEwBUCyg1ZuCM5LzszJ6DF8dLB+U0Wzs7lCa5KzsmsFYvtKwMcfbUJKSjK8gzrHLoIff7QJ8+fOd7K2/5cP1P1V10yDxl2R1GPI6LtF5I9w9rAfAGw3YUysCRav0jEb0ZHEAEAdUl1VaEefoaOeiyrJdbJEL3Bo+WAjirxeGdlLnS4aFKkMrXF6O2DD+g9w9DH9MSBtgJNR2lxtTS3uu2cemhptP6unlML14fKSe3XN5J0wY3A0ISEogvM0tNsYjcpPuKsfdVQMANRh7f1kTV2XESMfcUeNEwUY4rDdMUrkyuSs7E2RypCjRWUiVRWhlKycnXDw6uK6tesxOGMQ+vbr52SUNrNr5y78/a/3YP++fXZbKBG5OhwMzNM1k9dXcI4yjFIBjtXQbqmrsTkv/NqDn2voRdQmGACoQzvw8ZqmSHbGU8mNSYkCnOGwXaJAfpqckd07K3X0q052FIxUhlYlZ+bYvhKglIk1FWuRNTQLvXv3tjtGm2hoaMCcu+dg586d9pso3KJt+dypU11e7xl3KuB+AN2ctlMixf13ymUfvvug430miNoSdyShTsPryy9UIvcBDt4Q+JLC64bItK3B4u0aZnoANr9rXbt2xS9u/gU83nQnYxwx0WgUc/85Dx9t/Mh2D1FyW3V58Z91zHN03pX9Ekz3YwAmamjXohRurCnnuv7UOfAKAHUadVWhitTMnHcBTAbQ1VEzwSAFTEvJGLM6UlVhex+BuqpQxeFFjGxdCWhpacH699djVPZIdOvm+JfXmHvysacQWh2y3+DQ0/5/1DGLd+LM0w24XgXgbDOfQ/aIGOeGg8VPauhF1C4wAFCnUlcV+jQ5c9SzgPicPhwIoCdEXZ6aNdqoGzX4TWzcaOs9tsPBZC8AP2yEgMaGRmxYtwGjx2QjMTHRzghHRNniMiwts7+5z+FFfrS85+/15Rcqw3gKDtfzP6zSpWTCVj7pT50MAwB1OpGqNbtTjzvlcWVGRwtksMN2BoBxqY1JZ6Zmji6vq6qw9VRbXVXovdSM0Y0Qe8sGH9h/AB9t/AijT85BQoLzOxy6rV+7Ho8vdLIGjjxUEwxc53SOvlNm9OwzaMwjEPwKen6+vRntIr5wabHjBaOI2hsGAOqU6j5Z3ZCVOvqJ/d3QD8BoDS2PVVCXpmbmvF9XFfrU1kxVFW+lZOX0AHCanfpIpB6bqzZjzCljYBhOVkPW6/Ptn+O+f85FS0uL3RYvhRvTpmPLctsPXQKA118wIiHqWgaoHzvp8x8K88JNadPqy++2/SoDUXvGAECd1vbtFWakKrQ4NTPnUxy6/O7wV2fpAWC6k7cEIpWhZamZ2Wl2txLevWs3vvh8B0bljIRI2z/D29DQgHv/Pgd799pcPkFhRTRRptSX3+1oY590f+ElAF4CcIyTPoc1KMjVNeWB3zsNJUTtGQMAdXp1VaF1PTPHLBaoCQCcvlMnInLK/m7qx8nDTl4a2bS63vI82RlLUhqSToDA1haA27dtB5TCkOOcLn3gjFIKgXkl+LTK1gURANjoamo+K1z+oOX/hl/KzJud2H3wSfeK4M8Autjt8xWfKFG+mmDA8ZaFRO0dAwDFhfqqis+PGnL6v1rQkiXAcOcdZaCY6vJemaM31lVVfGKpdONG5cnOeL6xMelkAJl2jv7Jpkr06dsH6Z62ez0wuCSIN19/y275TgVzQvWrD22z2yAtLz9dmS2LIXK+3R5fI+plV2PLpOplC2y/9UHUkTAAUNzYXbmyMVIZeiY1M2cPgPFw/ve/mwKmJWdk9/ZkZ7y2Y+PGVi94v2PjxmiP4aOfkyh+IoDHzsE3rPsAgzOORd9+Tl92sG7zp1vwyIJH7G7w02CKkVsbDKyze/w0f+FPDIVyQHTsodwiIv8bPjXt6r0P33NQQz+iDqHtbyIStQGPP/9MQJ6CnnvGALBKotGLq5ctsHQ9fMDkwr6uJvU6bF6VSEpKwi9v+yXSjuC+AQcOHMAf7/oTdu/abadcQdSl4bISu68MiNdfcIsC/gA9v8DsEDGmVZfNf1VDL6IOhQGA4tbhVeIeB+y9mvct6gQorA4GnrZSNMB3pccl7rcA2NoCsHef3rj1NzejZ7KTjRFbRymF+++bjw3vr7fb4TfhYImthX7Sxl/bx3A3PgpIrs2Df3OWNwwYFztd7ZGoo+ItAIpb+yrXHoh4pjyR4t7nBnA6nAfiJAAXWr0lUF+1NpKcOeoVgVwEoIfVgx48eBCbPvoEY04dA7fb6e623+/Vpa/h9ddet1ktz4Vtvus/0F+YDSO6DJAxNg/+VUopNaf/LuOyD98srtPQj6hD4hUAIhy+pwz1GHTdEhC83Swt//NZ6UM7WlvimThrNAxzOYDudg45ctRJKLimIGavB27ZvAV3//kfiEZtve//fpNqOP3z8oX7rRZ6cguugMIDAHQsg1gHJVeEy4tf0NCLqEPjFQAiAPVVFVu6Zpy80CXqRNh8Mv8bvC5lnN8ja2SwvnLNrtYURD6t2JaSmf0BIFNxaAVCSz777HM0NTVh2Ahbbxd+r4MHDuDev8/B/v2Wz98A1C5DYXxt+cNfWCwUb25hERT+DkDHpY0PjajyVS8N2H51gagzYQAgOmx/1er9karQYxrfEuhtwLgkOSt7ZaQytKU1BZGq0MepmTl1AGzd5/606lP0Paof0tPT7JR/p4cDD+PTqs12Sk2YxvnVSwMVVooy82Yn9sg86WGlMBsarlSKkkejiTKlpizA+/1EhzEAEH1DXVXoveQhOW+IiYkQOH2yrqsouSglY8ybrd1VsK4q9F5yRnZvETnFzgE3rt+IYSOOQ2ovHfvgACveWYHgknKb1fKncHlxwEpFv3HX9ICraRmAs20e9KsaFHBNuDzw2/pNFc0a+hF1Gu1nQXGidqSmNPB6s6tlFKDKHDcTdIWYL6X5Z53U6uOfln4DAFv3qZubmzH/vmLU7XX+fFtdXR2eefJZe8UKK47aiSIrJZl5sxOTEpufF5v7JXzDZlHqjJpgwFIAIYoXDABE3+Gz0od2hIMlkwT4BYAmh+1SDJhLB+TOGNqqTxcVmSq5xyUA3rNzsLq6OgTuDzjZoAcA8OSjT+LAgQN2Sve43ebFFRXFrf+tu6jIaDQbHoGG1zJFYYmCObq6vMTSrQeieMJbAEQ/oK4q9F7PrDGvCtREACkOWnU3xDUpOWPko5GqNT+44lxk44qW3kNPfcVU5lSxsa/9nj17sWfPHpw0qtUXHr5m5bsr7V76V4CatrXsQUvhxdMl634IfmbngF8RhZI7wuWBq1vz35gonvEKAFEr1JbNfzchKicCWOSokVKDRRklrf34liXzPjMMYxIAW9vtrXj7Pbyx/A3LdZFIBIuefMbOIQHB3eFgyYtWSry+/EIIZtk74H/shCmTwuXFfwBga41iongVQ5tJAAAgAElEQVTCKwBErbTn04rGSFVoUWpG9naI+GH3+yMYlpo1+rO6yopWXZ6uq6zYkZyV/Z5ALrFzzA8/+AgZWRno27dPq2seefARVFeHrR4KAFYlJ++9zMq+COn+mZkQ4zk42c1P1GqXuCdWl8/nJX+iVuIVACKLqstLiiE4Awq1dnsopf7uzZvV6vX/a8pKlgO43s6xotEoFsxf0Oq1+1evXI01obV2DrXXJa6ffrBoUaufl8jMm50IuJ6GjRUQvySCOck9607fUvbAFrs9iOIRAwCRDeGywCrVxXWKALbOlAC6KRX9F4qKWv0dDAcDDyiRYjsHq6+vx/y589HQ0PC9n6upDuPJR5+ycwgA6karJ+FG8+AfBGqUzQO2iFKzqssC11kJHUR0CG8BENkU2bS6vovn1MfcbnMUgCzrHWRAak19VV1VqNXb4npGDS5vbEz6CWxsHBSpi+CDDR8iMysDPXv2/Nq/U0qhYlUFiueV4OBBO8/OqbJwsOQmKxWDfIXHKcHDsPFzSIB6JerCcLDkSau1RHQI9wIgcih96g1dJVJfBsiPLBcr1EYTZci2l4tb/a7dsePz+7e4jVWA8lg+HgDDMHDcsOOQOSQD3bp3w+7de7Dh/Q3YVrvNTjsAiESjcsK2ZcXVVorS/QUvC3COjeMdMBQmbi0PvGOjlogOYwAg0iAzb3Zyo9nwbwDZ1qutb5Hr9eXnKMibEHS1fjy9ROSq6rLi+VZq0nPzx4mSf9s4XBMEU8JlgaCNWiL6Cj4DQKRBZemciGmocwHVqo1/vk5uzcybbWnJ4erykgoFFFg/ll4C/Lu6rNjqcwkiSv7P3gHVFTz5E+nBAECkSW1pSQ2UkW+jNLnRPDjdalFNeeAxCOydSPXYrwwpgMV37tP8heMA5Fg9mBIpDpeVPGG1joi+HQMAkUbh8uIX7D2pL1fbOt6pabeKwhI7tU4pyK/CpcVVVusMKDt/1k8aG9y/tFFHRN+BAYBIM8Pl+pWNWwEjPL5Z1h8iLCoykeC+TCAfW651ZlnN2AHzrBYN9BceA+A8i2XKULhix/J5+6wej4i+GwMAkWbVi+/fAxFLD/UBgBhmod3jmYieA2CnnXobViUaSRegqMi0WmgC+QASrNQowbN84p9IPwYAohhIlKS5ACy9FqcUJmHqVFtrc9QEH6wUpXIB7LBTb0HwYGJ0fGXpnIi9cnWRxYImKPM2e8ciou/DAEAUA5WlcxoBZenVOAC9BtalnmL3mNXlJRVRiZ4JYJPdHt9HgEC4Me2cnS8tqLdTP8B3pQfACEvHVPJ0TfDBSjvHI6LvxwBAFCPNRjQAoNFKjQnkOTnmtrIFHzc0JuQA8hD07Yi3V0Suqg4GCrG8qMVuE7eRMMlqjUDdb/d4RPT9GACIYuSz0od2KMHLlorEWQAAgB3L5+0LB4tnmGKcDuAtB60aoDDf5UoYZnWhn2+jDt2isGId7/0TxQ4DAFEMCbDYYslJh3bIc662bP674WDgTAOSA+ABADWtKDMBrALkjiblGhguD1y1Zcm8zzSMIwB+YrFikYbjEtF3cLf1AESdmctIKItGmxVav+y2u0EdHAqg1RsE/ZCtweIQgKsBXD1wQv4w5ZITlGAIlEqFkq4K6gsR+VyUWRuNJr1T++pcG6sZfr8BvivTAaRYqRFTleqeg4j+PwYAohjasmTeZx5/wXoAJ7a2Rg49KKctAHzV1mUlHwL4MBa9v48hXUYcurjQOgr4Inxa+hqUx3AoojjHWwBEMSZKrJ3MTRkeo1HajEBZevofwEo76wwQUesxABDFmqgN1j4vWTGapO0oNcxixQcxmYOI/oMBgCjGlFi95G5aulfeIRjqKEsfZwAgijkGAKIYk6hp7aE6kZ4xGqXtKGt/JlNUOFajENEhDABEMWYmuKwtm2siOUajtBkFsXRVw6UMm0sNE1FrMQAQxVgCopZOZko6XwAQKEt/JtNAXaxmIaJDGACIYqw5am33OwGaYzVLG7L03yDa3Cn/GxC1KwwARDFmKGuXvwF0wsvfYunP5DKine4qCFF7wwBAFGOmAasP9XW6AKCgLP2ZDBgMAEQxxgBAFGOGaQy0WNLp7n+LxQBgiuoXq1mI6BAGAKJYE2VpZT+B2hGrUdqMkr1WPi7KsLpwEBFZxABAFGPmobX9W00pY2OsZmlDlVY+bFoMTURkHQMAUSwVFRkAxliqMVRnDACWVvYT4KRYDUJEhzAAEMWQ5+3t2QJYWgZXuV3W9g7oAJRbrC7te8JAf+ExMRmGiAAwABDFlqHyLFbsqXnlgdqYzNKGUrrv+RhAi4USUQq+WM1DRAwARLGl1FRrn8fy2AzStj5YtKgJwBpLRaImx2YaIgIYAIhixuPPPxOCE6zUKJElsZqn7akyS58GpngmzhgQq2mI4h0DAFHMyNVWK8woymMxSXtgiqvUYkkCXK4ZMRmGiBgAiGIhfeKsLAAXWCpSWL9tWXF1bCZqe7U9d68ElLWtkZUUZubNTozRSERxjQGAKAbEUH8G0MVi1VMxGaa9WLQoCshia0XK0xhtmB2bgYjiGwMAkWbe3MIzAHW+xbIml9v9YEwGakdEJGC9CL8ZMLmwbwzGIYprDABEGvX3Te9uKmX9JKfw3JYl8z6LwUjtSnVZ8VtQWG+xLNXVqP4ck4GI4hgDAJFGXSTpXgGOs15p3K9/mvZKrP9ZBTM9vvyLYjAMUdxiACDSJN1XcCkA60+ti1odLp//hv6J2qeDSS2Pws6OhyL3D/Bd6dE/EVF8YgAg0mCgL/8sEdi6hy9w/Ur3PO3ZzpcW1IsSO5f0e7kkYUm6f2Zv7UMRxSEGACKH0v0zTzZFXgRg53W1F6rL5r+qe6b2zmhqukcBW61XquNFGYv7+6Z31z8VUXyRth6AqCPz+gsmKOAZACk2ylvEME6qLp0f893/vL78Qiufry4vKY7VLF9K9xVcKoJHbZYHGxoTLtyxfN4+rUMRxREGACKbvL78QiUyF4DbTr0Af60OBm7VPNa38vgLlJXPh4OBI/GzQTz+ghUATrZVDKyNGmpybWlJjea5iOICbwEQWZSZNzvR4y+8T4nMh82TP4CKnsl7b9c5VwekXEp+BmC/rWJgpBGVFZ7cgjGa5yKKCwwARBYMyr1qUKPZ8DqgrnXQZr9LyWWHd8iLa1vKiz9SwA22GwjSoPCO119wK3hFk8gSBgCiVkr3F1wQVdE1AE5x1Ejhui3lxR/pmarjqwkGAg6XQXYr4M8ef8ELfEOAqPUYAIh+QPrUG7p6/fkBOfSwX6qjZgrzwuWBBXom6zzE7boaQKXDNlMExpq03FljdcxE1NkxABB9j0G+wuMksm+FguQ7bqbwfDhl73Uaxup0qhffv8dQygdgu8NWXkOZb3hzC4tQVMSfb0Tfg18Qou/g9edfHhW1GsCJTnspqFcTXUnTDu2IR99ma3nJZuUSP4A9Dlu5lVJ3et6tWXx03pX9dMxG1BkxABB9Q79x1/RI9xc8oiD/AqBjwZk3m1XjuZWlcxo19OrUapYUr1dK8mDzzYCvk9wE073e68uf6LwXUefDAED0Fd68WcOTElveFWC6ppaLVHIP/+flCzWc0OJDTXnxe6ahJijgCw3t+iuRUm9uYRGmTnVp6EfUaTAAEB3m9edfrkxzFaCO19FPKXVveGzaxTWL/nFQR794UltassKIRscC+FBDO5dS6k5PJHWZZ+KMARr6EXUKfG+W4t7gCYUpzS4VADBVU8tGUTKrurz4X5r6OdZOVwL8Qd6zr+6FlpZnFfATTS13KBiX1wTnl2nqR9Rh8QoAxTWvLz+n2Y0Q9J38Kw3Iae3p5N+RVS++f0/P5L25Sql7AVgKMd+hn8Bc7PEX/gHjiuyu4kjUKTAAUNzy+vMvV5A3odRgPR3lOVdj85itweKQnn4EAB8sWtRUU15yPQTnAditoaUBqF97EmtfG+gvPEZDP6IOiQGA4s6gcVckef35AQX5FwRdNbRsEOAX4WDxBVuWP7xXQz/6FuGywEtR1TISgrc1tTzThHrfmztrvKZ+RB0KAwDFlXT/zMxoYsJ7Whb2ASCQj00Yp1YHA//U0Y++37byh8LhhrRxInIXAFNDy35KmWXe3MIi8JkoijP8C09xw+ubOVmJ8QicLud7mAIWNjYmXNMR9qTvqA8Bfh+vv2CCgloIyNGaWr7kamz+Ga/iULzgFQDq/MYVub2+wr8qMV6EnpP/PoH6WU0wcHlHOPl3VtXBwDKV4B4NqDc0tZwSTUx4L31S4Qma+hG1awwA1KkNmnTN0Z7EmleVqJuh54rXOpeSMdXBkkc09CKHal55oDacXHcWFH4PPbcEhkhUrfD6C3QtBEXUbjEAUKeVnpt/Yku0eQUgP9LRTwELo11kLLfybWcWLYqGywO3C+AH1GcaOnZTwCPe3IJ7+aogdWYMANQppfsK8kTJmwIMdNpLgHqIuqQmGLh828vFB3TMR/pVBwPLmo3oiYDSssiPUpjtSaxdMmjcFVqeGSFqb9r9gz5EVnn9Bdcr4O/QE3BDCuZFNcEHne5V36a8vvxCK5+vLi8pjtUsR4B4/QXXKeBvABI09PvEdOGc2iWBTRp6EbUbDADUaYyYOrVLJNLrAUBdqaWhwrxEV9KN3MWvY/L4Zv0IYj4BQMf6/zsBdX44WPKmhl5E7QIDAHUK6f6ZvQXGswDGOW6mcBDAz8PlgQWOe1GbOjrvyn4JpvsxADq2BG6CYFa4LPCwhl5EbY7bY1KHlz5xVpYh8iqA0RrabVJu8dWUBYIaelEb21e59kAkO+Px1KauCsCP4OyXHheA85IzsntHpk8px/LlOvYmIGozvAJAHZpnYqEPhnoaQIqGdosOJkZn7nxpQb2GXtTOeH0F5yjBIwB6aWhXmmgkXVxZOieioRdRm2AAoA4rPTf/MlGyAM4f9GoR4LfVwcBfoWfHOWqnPHmFGWKqZxQw0mkvBVnjdrknbVkyT8erh0RHHAMAdUjanvRXqBVlXlS99EFdG8xQOzdo3BVJLUld/ilKWXoz4jtsVqbhr1k6/xMNvYiOKAYA6mjE4y/4PwA3Om2kgHcSWtT5m18t+VzDXNTBpOfmzxQlcwEkOmz1uQGZxG2gqaNhAKCOY1yR29tl20NK1GVOW4mSR7u4EvP5il98G+grOC0qeF6Aoxy22gdTLggvLS7XMhjREcAAQB3C4Xf8nwDU+Q5bKRH5XXVZ8V3g/X4C4J0wY7ByuV4CMMJhq0YIfhouC7ykYy6iWGMAoHYvM292YqPZ8BSAcx22alCQmTXB4sd1zEWdR98pM3omNboeF+Ach62iStQVNWUlj2oZjCiGuA4AtWsDJhd2M1taXgIwyWGr7RD4a4J8v5/+24GP1zRFsjOeTm5MShTgDAetDIGcm5oxemtdVcX72gYkigEGAGq3+o27pkcXRBdDcJbDViGV4DqrZgl38aPvsXGjilSFliVn5mwTIBf2fz4aEJybkpWzI1IZWqVzRCKdGACoXUqfekPXLtGGVyAOl/ZVeL4JDVO2ly7YpWcy6uwiVaFQakb2CohMBpBks40AmJSclV0TqQyt0TgekTbcDpjanRFTp3ZBZN8iBfzEWSeZGz4t7cLPyxfu1zMZxYvq8pKlLiVjFbDVQRsRJcXpvoJLtQ1GpBEfAqT2ZepUlyeS+gSAqU7aKOAvNcHArzRNRXFqoL/wGBOqFMBJDtpEoXBZuDzwpK65iHRgAKD2Y+pUlyfS6zFAXeSgS1RBrqoJFpdom4vi2qBxV6RGExNeAnCmgzbNoswLqssffFnXXERO8RYAtRueSMochyf/Rii5kCd/0mnL8of3quQefohycvJOUGI8nZ5X8GNtgxE5xCsA1C54cwtuUwp/dNCCi7BQbE2d6kqPpD4kwHQHXSImjB/VBufzFUFqcwwA1OY8ufnToOQx2P/7eECAc6uDgWU65yL6L4duUwUAdaXtHgq1UVNO27asuFrjZESWMQBQm0rzF/7EOPSQld0NWfabkMm1weJ/65yL6HuIx19wL4CfO+jxgbjdZ1Yvvn+PrqGIrGIAoDYzyFd4XFTUCgApduoFqI+K4a8tm/+u5tHoMI+/oMLK58PBQE6sZmlnHIcAJXit/w7JragobtY4F1Grudt6AIpPfafM6BltVM/C5skfCgdNQ03hyT/mstt6gHZKhYOB6zz+AjeAq+w0EIWzvuiLf8DZlQQi2/gWAB15RUVGUqPrcQDDbXZoUoa6sKasZLnGqYisUuFg4BqBcvDWibo23V9QoG8kotZjAKAjzvNO7e8d7LrWLMq8sKasZInWoYjsUdXJdVdBwfYiPwLM9fjznawxQGQLAwAdUen+ggsgsLtCn1IKV3IxFWpXFi2KHrVLLhcFu6E0AZAnB/oLj9E6F9EPYACgI2aA70qPAMWw+fCpALfVlAce0zwWkWMVFcXNZkqPCwXK7jMpA0yopzB1KjdooyOGAYCOjKIiwyXuRwD0tlOuRIqrg4G/aJ6KSJuaRf842NLFmAJgk80WZ3rqenH/CjpiGADoiEh/p+Z2wPbWvi/W9NxzjcZxiGJi28vFOyUazQPwua0GoorScmeN1TsV0bdjAKCY806cebqI/NZm+bom1XApFi2Kah2KKEaqly341DTUeQAabJS7DahHM/NmJ+uei+ibGAAopvr7pndXhrEQttacULsMpc77vHzhfu2DEcVQbWnJCkDZu2ql1OAGs+E+zSMR/RcGAIqpLpJ4F4BjbZS2GAo/3Vpesln3TERHQjhY8pAI5tipFWC611dg91VZolZhAKCYSZtYMBKQ6+3UCnDT1vKS13TPRHQkVTek3SiArX0qTMF9/X3Tu+ueiehLDAAUG0VFhiG4H3Yu/Ss8Xx0M/FP/UERH2PKiliaj5SIA26yWCjAwUZLuiMFURAAYAChGvO/WzobgVMuFCrVmtAuXRqVO47PSh3YoA5cAsPwgqwJuHJg3c1QMxiJiACD90sZf20cBd9kojSoXLq19de4u7UMRtaGa0sDrAtxto9StTJkL7txKMcDdAEk7w914GyDWd/lT+FNNaeD1GIx0RA2YXNjX3WgObO3nW0xjx7ZlxdWxnInaXr+d8tsv+qofAzjFSp2CjE3PLTivpizwfIxGozjFKwCklWfijAGAXG29UjYctUt+p3+iI8/daJ6vRFa39h+3S9ldI4E6kIqK4mbThcthY30AUfg9lwkm3RgASCsxXEUAulksM8WMXlVRUdwcg5GI2o3aJYFNEPzBRulwTyTlcu0DUVxjACBt0ifOylLAFdYr1fzqpQ++rX0gonYouefevwL4wHqlFGXmzU7UPhDFLQYA0sYworcASLBWpT5zNbb8OiYDEbVDHyxa1CSmOQuAabHU22gezI/FTBSfGABIC+/ZV/dSkEtslP56y/KH92ofiKgdq1764NtQeMhqncCYDb4RQJrwLQDSwow25wvE0r1/gXxc3Zi2MFYzkXPhYIAnm1hR0Tsgrmmw8MyMghrqmVg4Mby0uDyGk1Gc4BUAcq6oyBBl/cl/U9RtWF7UEouRiNq78NIF20TJXKt1ylCzYzEPxR8GAHLM827NZFjf8GdVTVnghVjMQ9RhJLj+BGCPlRIBJnnyCjNiNBHFEQYAck7Jz6yWiMLvAKgYTEPUYVQvvn+PAu6xWGYoU3G5bHKMAYAcSZ96Q1cIfBbLqqpPS1sSk4GIOhizi8yDxcWBBLgwRuNQHGEAIEekbr8fgKUtSwXqPhQVWX0FiqhT2vZy8U4AT1osy0ifVHhCLOah+MEAQM4Y5nkWKw7AnfCvmMxC1EEZhnmv1RqJwup3j+hrGADIvnFFbig522LV09WL77f00BNRZ7e19ME1UFhhrUoxAJAjDABkW1rS9jEA+loqEnBHM6JvJU9bLBg1wHelJyajUFxgACDbxDRHWyw5EE2QZTEZhqiDcxmG1XAsbnGPjckwFBcYAMg2ERll6fNA6baXiw/Eah6ijmxL2QNbALxvpcYUZek7SPRVDABkm8DaDx8TCMZqFqLOQIAXrX1esmM1C3V+DABkS2be7EQFjLBS44JUxGoeos7AhPGupQKlcmI0CsUBBgCypdlsHAFrW/82JRiJNvZAJ4ofzUpC1iqkDx8EJLsYAMiWqJiDLJZsqCyd0xiLWYg6i8/LH/gCCrVWatziHhqreahz43bAZIsoHGPt87IxVrO0Ny2JxnPuRrPVtztaTGNHLOehjkUJ1gqQZqFiQOymoc6MAYDs6m/lw6YoS7/VdGSHl3bd2dZzUMckkC2W9slSBgMA2cJbAGRXNysfFsUTIlGrKGy38nHTMFNiNQp1bgwAZJORZOnjog7GaBCiTkXE3G/p88rid5HoMAYAskWJpTcAIArNsZqFqFMRw1pYVqprjCahTo4BgIioPTFNCw8AAMoQidUo1LkxABAREcUhBgAiIqI4xABAREQUhxgAiIiI4hADABERURxiACAiIopDDABERERxiAGAiIgoDjEAEBERxSHuBkjUyQ30Fx6jlHm6KXIGoI4XSF8AfaDQBwJDAXUC1AHYCqj3BfK+meB6reaVB+JmB0eieMQAQNQJDZhc2NfdrAqUwhUm1BCI4NB6sV9ZNVb+8z9H4dA/WYBMUACkOQqvv2AtBE+7mtWCza+WfH6k/wxEFFsMAESdiDdv1nBlmr9Ek7pEAY52iVPASCiMbHFLkcdXsBAqekd46YJtumYlorbFAEDUGUyd6vLW9bpZmeZdALpo7t4FgpkQ18Xe3ML/a0nAX7e9XHxA8zGI6AjjQ4BEHdxAX/6xnkjKa0rUn6D/5P9V3ZVSdxpNqmKQr/C4GB6HiI4ABgCiDiw9N/98U2QdID86UscU4LioqHc8vllH7JhEpB8DAFHHJF5/wa2iZBGAHm1w/F4QszTdPyu3DY5NRBowABB1MH2nzOjp8Rc8p4A/o22/w90E5ovp/oIL2nAGIrKJAYCoA0mbVDCka6PrPQDntfUsh3UR4Cmvr/BnbT0IEVnDAEDUQXhyC6YYUawCMKytZ/kGlxK1IN1fUNDWgxBR6zEAELV/ku7LvxMKLwBIbuthvoMhwHyPr+Cmth6EiFqH6wAQtWNp46/tI+6mfwlwdlvP0goCwd88/sJB4eQ912PRomhbD0RE340BgKid8k6ceboymp8A4NHRz+NNx8ickcjIzEC/o45Cjx7dISI4cOAAttduxyebKhFaHcJn2z9zeCR1bXokdVDjuGsu3rF83j4dsxORfgwARO2PpPsLb1ZQfwCU4+9o/6P7Y9r0izFk6JBv/ffJyclITk7G0GFDcc65Z2PD++vx3DMvOAoCApydlNj8umfijMlcPpiofWIAIGpHBkwu7OtuVP9SUJN09Dv51DG45PJL0KVL6xcIPP6kEzB0+HEonluMDzZsdHL4bBjuFemTCs+uWVK83kkjItKPDwEStRPeiTNPdzUhpASOT/4ul4ELLjofV+RfYenk/6WEhARcNXsWRmWPdDiJ8khUveWZWOhz2IiINGMAIGp74vUXXK8M49+Acny/v3uP7rj2+mswfuJ4R31cLjdmXjUTp552qtORkmGoJd7cwiIUFfFnDlE7wVsARG3o2PH5/Vvc8pAC8nT0S/ekYda1s9Cnbx8d7WAYBqZfeRncCW689fpbTlq5lFJ3et7ddkJi3uwrK0vnRLQMSES2MY0TtZF0/6zcFresgaaTf86YHPzyV7/UdvL/kohg2mUXY4LP2RWFQ9T5jWbD6vRJhSdoaEZEDjAAEB1hfafM6OnxFZQIzFIAxzjtZxgGzrvwPMwovBKJiYkaJvxvIoLzf3o+zjn3bIiI03ZZElXvpvsLL9ExGxHZwwBAdAQN9BWc1rXJvRaCmTr69ejRA9dcfzV8uRN1nJh/0KTJk/CzGZfD5XJ897C7QD3m8RfMGTF1qvWnFInIMQYAoiMgJ6cwweMv/IMpeANKDdbRc3BWBm6741cYPmK4jnatdvLYk3HdL3+O7t2762j38/pIyvIBviu1LHZERK3HAEAUYwMn5A/7oq96F1C/BuBy2k9EMG78ONxw0/Xo1buXhgmtyxqShVt+czP69z/KcS8FGesS93pPbv40DaMRUSsxABDFjnh9+YWmS1YByNHRsHuP7rj6uqvw02lT4XI5zhKO9DuqH2667SZkZmXqaJcCJY+n+wse6Tfumh46GhLR92MAIIoB74QZg9NzC5YpkfkAtFwrH5yVgV/f+Wscf8LxOtpp0b1Hd8y+8ecYNXqUln4CTE9KbK7wTJw1WktDIvpODABEOk2d6vLkFtyoXK71onCWjpYiAl+eDzfc9Av06pWqo6VWCQkJyJ81E5POydP1IOIQGOa7Hn/+73JyChN0NCSi/8YAQKSJxzfzeE8k9W0o3A2gm46eX17yP++Cc+Fytd+vq4jgnPPOwdXXXaXr4UA3ILd/0Rehgf7CbB0Niejr2u9PFKIOIjNvdqLXX3AXxAgBOEVX36HDhra7S/4/5PgTjsetv70F6V5dD/Wr402odz2+wt/wagCRXgwARA6k5c4a22g2VCjgDgBaTlAJCQk474Jzcd2Ns9vlJf8f0rdfX9x82y9xxo9O19WyC0T9/ou+aoPXXzBBV1OieMe9AIhsGDC5sJvRpO4QZd4EDa/2/adv2gBckX8F0j1pulq2iYSEBFxy+SXIyMzA4wufQHNzs462QxRQnu4veDShRd28+dWSz3U0JYpXvAJAZJFnYqHP1aQ+EOBWaDr5G4YB3yQfbrvj1g5/8v+qU047BTfeeiN69+mtq6UIML3FLR96fIVXY+rUtn0XkqgDYwAgaqWBvvxjvf6CZ2CoIIBBuvr26dsHN9zyC5x3/rk6lthtdwYO8uK223+FE0ZqfZahF0TN80ZSV6fn5o/T2ZgoXnS+nzZEmvX3Te/eRRJvMyG/BJCks/fY08di6rQLkZSktW27071Hd1Hd350AAAl2SURBVFx17VV48/U38exTz+m6JQAFjBQl//b6C54VpW7eWl6yWUtjojjAAED03SQ9N/9SMeXPALRel+/ZsyemXT4NI0edpLNtuyYi+NG4HyFrSBYWFD+E2ppabb0VcIESOdvjK/hHoivpz5WlcyLamhN1UrwFQPQtPLkFY7z+/LdFyUKI3pN/9uhR+O1dv46rk/9XHTPgGNzym5tx1sSzdO9gmATBbY1mQ5XHV3hDZt7s2OyNTNRJ8AoA0Vek5eWnGwq/h8J0BdEakFNSU3DxpRfjpFEn6mzbISUkJODCiy7ASaNOxCMLFmLXzl062/eFqL83mg2/8Pjzi8LJdY9g0aKozgMQdQa8AkCEQ/f5vf6CW12mbISSn0Hjd0NEcPLYk/Hbot/w5P8NWUOycPvvfgtfnk/31QAA8AKyID2SusGbWzgVgPYDEHVkvAJA8W1ckdvTZVuBElWkAOd7235Dv359cenll2DIsKG6W3caXbp0wXkXnIuhxw3BY488ht279mjtL8BxSqmnPf6C90zIbbXB4n9rPQBRB8UrABS3PP78c9MTa9dD1DzRfPI3DAPjJ47Hb+76DU/+rTRsxDDcftftmOCfEKutjk8xoF7z5BYEvb58LdszE3VkvAJAcSfdP/NkUcZfAfw4FteE09IG4NIrLsWgYwfFoHvnlpiUiPOn/g9OPe0UPPnoU6j8pFL/QRR8SmSiJzf/FVPwx9rSkhX6D0LU/jEAUNwYOCF/mOmSuwBcCNF/P9jlcmG8bzzOOfdsuN38ajkxIG0AbrjlF1j57ko8+8zz2Bep130IgZLJhsJkT27B22Kaf6kuf/Bl3Qchas/4U4o6Pe+EGYNNl6vIBC5FjG57jThhBC686AL0P7p/LNrHJRHBKaedghNGnoBXXlyMN5e/iWg0Bg/zK5yuxHgp3V/wzv9r795i7CrLMAC/a2ZKh7aiFNqBOtMDwkVtJbEBTDm1FS2d0ulBLdGIAdJpA0iNRIhceCBqMBAuTEzk0A7xEBIRK4SWMp1WIWKQEKsESrjQhB4GYhEjUJROaffyQogkGhxkL/bs7udJ5m7n/96rvd9Za/3/ak9x455td2xNUtZ/EIwtCgBHrZN6L5/SUev4Spl8uUgq2RM+tWtKlq9akXlnfLSK5UkyYcKEXPy51Vnw8QXZdPem7HpyVyVziuTsWsotPYvXPlUU5S17j3v5LtsHOZopABx1pvWtO7HjUHldWcvVSSZUMaOzszNL+3qz6BMLj8rz+8eirq6puepLV2bXk7uy6e5N2b//hWoGFflImeJHPa984PosXnvL+PbOu/704PdHqhkGjeObi6PGSb2XTzmm1nFteai8qkwmVTGjKIrMP2d+VnyqL+877rgqRvA/zD19bmbPmZ1fP/xIHnxgsIrnA940O0UGRmoHb+xe3H/r6+m4df/QbRW1DnjvKQA0vVkX9HcdHldcm1quLJOJVc055bQP5eLPfibTZ0yvagSj1N7enkUXLMzZ58zPL3f8KjsGd+TgwYNVjesqiuKGY3Lk+p7Fa+9Kat/bNzRQzX0IeA8pADStN+/xH07Wp6zmUn+STD5hcvpWLMtZ88+q4rQ63oXxneOzdFlvFiw6P9sHd+ShHQ/V7U2D/0VniqxJ2ta8ZefAlnhgkCalANB0uldfc2xeefW7xZGsS5Fjq5ozadKkLO3rzXkLz3Wff4ybOHFiVn56RRYsOj8P3L81jz36WGq1WnUD39g50HPh2mfK5OvD2zZsqm4YVMO3Gk3l1N714w+9/OrPyyJLqzrZvb29I+ctPDd9Ky7KsRMqu7BABY6ffHwuuezz+eSST2TzfZvzh51PpCwr/Qd9dpHc033hunXD2+7YWOUgqDcFgKZxau/68SO11+5LUSypYv2iKHLWx85M36rlmXzC8VWM4D3SdVJX+q/oz57de3L/vZvzzNPPVDmuKFLe1rO4/8C+oY13VzkI6kkBoGmM1A7+NKnmx3/O3A9n+arl6ZnRU8XyNMiMmTOy/pqrs/vZ3RncMpinntxV1RWB9hTFT7qX9B8YHty4tYoBUG8KAE2he0n/6Smzst7rzjplVlas6vPCnqPczFkzc8X6K/L8c89naHB7dj7+uxw5UvdnBMYVZfHtJAoATUEBoCkUZbG2nuv1TO9O38q+zD19bj2XZYyb9sFpuWzNpVm6bGm2bd2Wxx97vN7HC8/rWbxmrm2CNAMFgDFv5sLLOo/86xz/d62ra2qWrVyWeWfMs6WvhU3tmpIvXH5JLlp+UbYPbs+jv3m0ftsH29ouTXJdfRaD6igAjHmvTxg3ve1I6vJU3v79L2Tg9jszcPud9VgO/lOZ8xsdAUajkjejQT2Vhw+/1ugMMGpFXmp0BBgNBYAxr9aeys54hbor89dGR4DRUAAY89o6xv09SYXHukH9FEVebHQGGA0FgDHv+c13/CNlftboHDAatVoebHQGGA0FgKZQlm3fSHK40Tng7RQpfzs8tEEBoCkoADSF4e23/zHJjxudA95WmW82OgKMlgJA0+hor30r8UAgY1OZ3LR3aOP2RueA0VIAaBrPbh3Yk7J2ZpE80egs8FZlctPwtg3XNzoHvBMKAE1l39DArraR1+cXyc1xNYAGK5MXUmaNH3+akQJA09n98A8P7t224avluPZTU+YHRXKg0ZloOS8Vyc2dbZ2n7Rva4FhJmpKjgGlaw1tuey7JF+esXn3NgZffv6CWLEuROUWKk5OcnNTn+GBa3t+S/DnJ/iS/r6XY8tzItEfy8A12pdDUFACa3tP33HMoyfY3/gAYBbcAAKAFKQAA0IIUAABoQQoAALQgBQAAWpBdAPxfilr2psjO0X6+1lb8pco8ALwzRaMDAPBv0/rWndgxUpsx2s+3d5QvPrt1YE+VmQAAAAAAAGgangFoAd1L1q4qynyt0TmA5lAW+c7w4IZ7G52DatkF0ALaauWUsijmNToH0BzaauWURmeges4BAIAWpAAAQAtSAACgBSkAANCCFAAAaEEKAAC0IAUAAFqQAgAALUgBAIAWpAAAQAtyFHALODy+7RcdI7Wdjc4BNIfD49v2NDoDAAAAAAAAAAAAAAAAAAAAAAAAAAAAAAAAAAAAAAAAAAAAAAAAAAAAAAAAAAAAAAAAAAAAAAAAAAAAAAAAAAAAAAAAAAAAAAAAAAAAAAAAAAAAAAAAAAAAAAAAAAAAAAAAAAAAAAAAAAAAAAAAAAAAAAAAACT/BH/PJ8GHWKxGAAAAAElFTkSuQmCC;" vertex="1" parent="rMI3Hbo40x5JovAeGuvk-95">
          <mxGeometry x="4.9950000000000045" y="7.815000000000055" width="50" height="50" as="geometry" />
        </mxCell>
        <mxCell id="rMI3Hbo40x5JovAeGuvk-96" value="" style="endArrow=classic;html=1;rounded=0;entryX=1;entryY=0.5;entryDx=0;entryDy=0;" edge="1" parent="1">
          <mxGeometry width="50" height="50" relative="1" as="geometry">
            <mxPoint x="168" y="1120" as="sourcePoint" />
            <mxPoint x="-132" y="1118" as="targetPoint" />
          </mxGeometry>
        </mxCell>
        <mxCell id="rMI3Hbo40x5JovAeGuvk-97" value="go routine" style="edgeLabel;html=1;align=center;verticalAlign=middle;resizable=0;points=[];" connectable="0" vertex="1" parent="rMI3Hbo40x5JovAeGuvk-96">
          <mxGeometry x="-0.1194" y="-1" relative="1" as="geometry">
            <mxPoint x="-14" as="offset" />
          </mxGeometry>
        </mxCell>
        <mxCell id="rMI3Hbo40x5JovAeGuvk-101" value="" style="endArrow=classic;html=1;rounded=0;" edge="1" parent="1">
          <mxGeometry width="50" height="50" relative="1" as="geometry">
            <mxPoint x="-129" y="1750" as="sourcePoint" />
            <mxPoint x="168" y="1750" as="targetPoint" />
          </mxGeometry>
        </mxCell>
        <mxCell id="rMI3Hbo40x5JovAeGuvk-102" value="thread merge" style="edgeLabel;html=1;align=center;verticalAlign=middle;resizable=0;points=[];" connectable="0" vertex="1" parent="rMI3Hbo40x5JovAeGuvk-101">
          <mxGeometry x="-0.0237" relative="1" as="geometry">
            <mxPoint as="offset" />
          </mxGeometry>
        </mxCell>
        <mxCell id="rMI3Hbo40x5JovAeGuvk-103" value="write header&lt;br&gt;to&amp;nbsp;&lt;span style=&quot;background-color: rgb(13, 16, 23); color: rgb(191, 189, 182); font-family: &amp;quot;Fira Code&amp;quot;, &amp;quot;Droid Sans Mono&amp;quot;, &amp;quot;monospace&amp;quot;, monospace; white-space: pre;&quot;&gt;&lt;font style=&quot;font-size: 12px;&quot;&gt;logFile&lt;/font&gt;&lt;/span&gt;" style="rounded=1;whiteSpace=wrap;html=1;" vertex="1" parent="1">
          <mxGeometry x="-480.87000000000006" y="1260" width="89.91" height="50" as="geometry" />
        </mxCell>
        <mxCell id="rMI3Hbo40x5JovAeGuvk-109" style="edgeStyle=orthogonalEdgeStyle;rounded=0;orthogonalLoop=1;jettySize=auto;html=1;entryX=0.5;entryY=0;entryDx=0;entryDy=0;exitX=0;exitY=0.5;exitDx=0;exitDy=0;curved=1;" edge="1" parent="1" source="rMI3Hbo40x5JovAeGuvk-105" target="rMI3Hbo40x5JovAeGuvk-103">
          <mxGeometry relative="1" as="geometry" />
        </mxCell>
        <mxCell id="rMI3Hbo40x5JovAeGuvk-112" value="yes" style="edgeLabel;html=1;align=center;verticalAlign=middle;resizable=0;points=[];" connectable="0" vertex="1" parent="rMI3Hbo40x5JovAeGuvk-109">
          <mxGeometry x="0.1854" y="3" relative="1" as="geometry">
            <mxPoint as="offset" />
          </mxGeometry>
        </mxCell>
        <mxCell id="rMI3Hbo40x5JovAeGuvk-105" value="if &lt;br&gt;&lt;span style=&quot;background-color: rgb(13, 16, 23); color: rgb(191, 189, 182); font-family: &amp;quot;Fira Code&amp;quot;, &amp;quot;Droid Sans Mono&amp;quot;, &amp;quot;monospace&amp;quot;, monospace; white-space: pre;&quot;&gt;&lt;font style=&quot;font-size: 12px;&quot;&gt;logFile&lt;/font&gt;&lt;/span&gt;&amp;nbsp;?" style="rhombus;whiteSpace=wrap;html=1;fillColor=#ffe6cc;strokeColor=#d79b00;" vertex="1" parent="1">
          <mxGeometry x="-390.96" y="1137" width="103" height="103" as="geometry" />
        </mxCell>
        <mxCell id="rMI3Hbo40x5JovAeGuvk-107" value="" style="endArrow=classic;html=1;rounded=0;exitX=1;exitY=0.5;exitDx=0;exitDy=0;entryX=0.5;entryY=0;entryDx=0;entryDy=0;" edge="1" parent="1" source="ZQ679UXOm5iZFMzoPjvu-19" target="rMI3Hbo40x5JovAeGuvk-105">
          <mxGeometry width="50" height="50" relative="1" as="geometry">
            <mxPoint x="-180" y="1260" as="sourcePoint" />
            <mxPoint x="-130" y="1210" as="targetPoint" />
          </mxGeometry>
        </mxCell>
        <mxCell id="rMI3Hbo40x5JovAeGuvk-117" style="edgeStyle=orthogonalEdgeStyle;rounded=0;orthogonalLoop=1;jettySize=auto;html=1;exitX=1;exitY=0.5;exitDx=0;exitDy=0;entryX=0.603;entryY=-0.011;entryDx=0;entryDy=0;entryPerimeter=0;startArrow=classic;startFill=1;endArrow=none;endFill=0;" edge="1" parent="1" source="rMI3Hbo40x5JovAeGuvk-119" target="ZQ679UXOm5iZFMzoPjvu-29">
          <mxGeometry relative="1" as="geometry">
            <mxPoint x="-199.07500000000027" y="1392.7359199999996" as="sourcePoint" />
            <mxPoint x="-60" y="1420" as="targetPoint" />
          </mxGeometry>
        </mxCell>
        <mxCell id="rMI3Hbo40x5JovAeGuvk-118" value="read logs" style="edgeLabel;html=1;align=center;verticalAlign=middle;resizable=0;points=[];" connectable="0" vertex="1" parent="rMI3Hbo40x5JovAeGuvk-117">
          <mxGeometry x="0.0901" y="3" relative="1" as="geometry">
            <mxPoint x="-55" y="3" as="offset" />
          </mxGeometry>
        </mxCell>
        <mxCell id="rMI3Hbo40x5JovAeGuvk-115" style="edgeStyle=orthogonalEdgeStyle;rounded=0;orthogonalLoop=1;jettySize=auto;html=1;entryX=0.5;entryY=0;entryDx=0;entryDy=0;" edge="1" parent="1" source="rMI3Hbo40x5JovAeGuvk-105" target="rMI3Hbo40x5JovAeGuvk-119">
          <mxGeometry relative="1" as="geometry">
            <mxPoint x="-320.32038000000057" y="1351.1766200000002" as="targetPoint" />
          </mxGeometry>
        </mxCell>
        <mxCell id="rMI3Hbo40x5JovAeGuvk-116" style="edgeStyle=orthogonalEdgeStyle;rounded=0;orthogonalLoop=1;jettySize=auto;html=1;curved=1;exitX=0.5;exitY=1;exitDx=0;exitDy=0;" edge="1" parent="1" source="rMI3Hbo40x5JovAeGuvk-103">
          <mxGeometry relative="1" as="geometry">
            <mxPoint x="-339" y="1350" as="targetPoint" />
            <Array as="points">
              <mxPoint x="-436" y="1350" />
              <mxPoint x="-339" y="1350" />
            </Array>
          </mxGeometry>
        </mxCell>
        <mxCell id="rMI3Hbo40x5JovAeGuvk-128" style="edgeStyle=orthogonalEdgeStyle;rounded=0;orthogonalLoop=1;jettySize=auto;html=1;curved=1;exitX=0;exitY=0.5;exitDx=0;exitDy=0;" edge="1" parent="1" source="rMI3Hbo40x5JovAeGuvk-119" target="rMI3Hbo40x5JovAeGuvk-126">
          <mxGeometry relative="1" as="geometry" />
        </mxCell>
        <mxCell id="rMI3Hbo40x5JovAeGuvk-131" style="edgeStyle=orthogonalEdgeStyle;rounded=0;orthogonalLoop=1;jettySize=auto;html=1;entryX=0.5;entryY=0;entryDx=0;entryDy=0;curved=1;" edge="1" parent="1" source="rMI3Hbo40x5JovAeGuvk-119" target="rMI3Hbo40x5JovAeGuvk-129">
          <mxGeometry relative="1" as="geometry" />
        </mxCell>
        <mxCell id="rMI3Hbo40x5JovAeGuvk-119" value="append logs to&amp;nbsp;&lt;br&gt;&lt;div style=&quot;color: rgb(191, 189, 182); background-color: rgb(13, 16, 23); font-family: &amp;quot;Fira Code&amp;quot;, &amp;quot;Droid Sans Mono&amp;quot;, &amp;quot;monospace&amp;quot;, monospace; line-height: 19px; white-space: pre;&quot;&gt;&lt;font style=&quot;font-size: 12px;&quot;&gt;logBuffer&lt;/font&gt;&lt;/div&gt;" style="rounded=1;whiteSpace=wrap;html=1;" vertex="1" parent="1">
          <mxGeometry x="-384.41" y="1367.82" width="89.91" height="50" as="geometry" />
        </mxCell>
        <mxCell id="rMI3Hbo40x5JovAeGuvk-120" value="Go routine" style="text;html=1;align=center;verticalAlign=middle;resizable=0;points=[];autosize=1;strokeColor=none;fillColor=none;" vertex="1" parent="1">
          <mxGeometry x="-255.57999999999998" y="1093" width="80" height="30" as="geometry" />
        </mxCell>
        <mxCell id="rMI3Hbo40x5JovAeGuvk-140" style="edgeStyle=orthogonalEdgeStyle;rounded=0;orthogonalLoop=1;jettySize=auto;html=1;entryX=0;entryY=0.5;entryDx=0;entryDy=0;curved=1;" edge="1" parent="1" source="rMI3Hbo40x5JovAeGuvk-123" target="ZQ679UXOm5iZFMzoPjvu-19">
          <mxGeometry relative="1" as="geometry">
            <Array as="points">
              <mxPoint x="-485" y="1770" />
              <mxPoint x="-339" y="1770" />
            </Array>
          </mxGeometry>
        </mxCell>
        <mxCell id="rMI3Hbo40x5JovAeGuvk-123" value="append logs&lt;br&gt;to&amp;nbsp;&lt;span style=&quot;background-color: rgb(13, 16, 23); color: rgb(191, 189, 182); font-family: &amp;quot;Fira Code&amp;quot;, &amp;quot;Droid Sans Mono&amp;quot;, &amp;quot;monospace&amp;quot;, monospace; white-space: pre;&quot;&gt;&lt;font style=&quot;font-size: 12px;&quot;&gt;logFile&lt;/font&gt;&lt;/span&gt;" style="rounded=1;whiteSpace=wrap;html=1;" vertex="1" parent="1">
          <mxGeometry x="-529.91" y="1600.06" width="89.91" height="50" as="geometry" />
        </mxCell>
        <mxCell id="rMI3Hbo40x5JovAeGuvk-124" style="edgeStyle=orthogonalEdgeStyle;rounded=0;orthogonalLoop=1;jettySize=auto;html=1;entryX=0.5;entryY=0;entryDx=0;entryDy=0;exitX=0;exitY=0.5;exitDx=0;exitDy=0;curved=1;" edge="1" parent="1" source="rMI3Hbo40x5JovAeGuvk-126" target="rMI3Hbo40x5JovAeGuvk-123">
          <mxGeometry relative="1" as="geometry" />
        </mxCell>
        <mxCell id="rMI3Hbo40x5JovAeGuvk-125" value="yes" style="edgeLabel;html=1;align=center;verticalAlign=middle;resizable=0;points=[];" connectable="0" vertex="1" parent="rMI3Hbo40x5JovAeGuvk-124">
          <mxGeometry x="0.1854" y="3" relative="1" as="geometry">
            <mxPoint as="offset" />
          </mxGeometry>
        </mxCell>
        <mxCell id="rMI3Hbo40x5JovAeGuvk-142" style="edgeStyle=orthogonalEdgeStyle;rounded=0;orthogonalLoop=1;jettySize=auto;html=1;exitX=0.5;exitY=1;exitDx=0;exitDy=0;curved=1;" edge="1" parent="1" source="rMI3Hbo40x5JovAeGuvk-126">
          <mxGeometry relative="1" as="geometry">
            <mxPoint x="-340" y="1790" as="targetPoint" />
            <Array as="points">
              <mxPoint x="-408" y="1760" />
              <mxPoint x="-339" y="1760" />
              <mxPoint x="-339" y="1790" />
            </Array>
          </mxGeometry>
        </mxCell>
        <mxCell id="rMI3Hbo40x5JovAeGuvk-143" value="no" style="edgeLabel;html=1;align=center;verticalAlign=middle;resizable=0;points=[];" connectable="0" vertex="1" parent="rMI3Hbo40x5JovAeGuvk-142">
          <mxGeometry x="-0.51" relative="1" as="geometry">
            <mxPoint as="offset" />
          </mxGeometry>
        </mxCell>
        <mxCell id="rMI3Hbo40x5JovAeGuvk-126" value="if &lt;br&gt;&lt;span style=&quot;background-color: rgb(13, 16, 23); color: rgb(191, 189, 182); font-family: &amp;quot;Fira Code&amp;quot;, &amp;quot;Droid Sans Mono&amp;quot;, &amp;quot;monospace&amp;quot;, monospace; white-space: pre;&quot;&gt;&lt;font style=&quot;font-size: 12px;&quot;&gt;logFile&lt;/font&gt;&lt;/span&gt;&amp;nbsp;?" style="rhombus;whiteSpace=wrap;html=1;fillColor=#ffe6cc;strokeColor=#d79b00;" vertex="1" parent="1">
          <mxGeometry x="-460" y="1477" width="103" height="103" as="geometry" />
        </mxCell>
        <mxCell id="rMI3Hbo40x5JovAeGuvk-134" style="edgeStyle=orthogonalEdgeStyle;rounded=0;orthogonalLoop=1;jettySize=auto;html=1;entryX=0.5;entryY=0;entryDx=0;entryDy=0;exitX=0;exitY=0.5;exitDx=0;exitDy=0;curved=1;" edge="1" parent="1" source="rMI3Hbo40x5JovAeGuvk-129" target="rMI3Hbo40x5JovAeGuvk-133">
          <mxGeometry relative="1" as="geometry" />
        </mxCell>
        <mxCell id="rMI3Hbo40x5JovAeGuvk-135" value="yes" style="edgeLabel;html=1;align=center;verticalAlign=middle;resizable=0;points=[];" connectable="0" vertex="1" parent="rMI3Hbo40x5JovAeGuvk-134">
          <mxGeometry x="-0.1809" y="5" relative="1" as="geometry">
            <mxPoint x="3" as="offset" />
          </mxGeometry>
        </mxCell>
        <mxCell id="rMI3Hbo40x5JovAeGuvk-136" style="edgeStyle=orthogonalEdgeStyle;rounded=0;orthogonalLoop=1;jettySize=auto;html=1;entryX=0;entryY=0.5;entryDx=0;entryDy=0;exitX=0.5;exitY=1;exitDx=0;exitDy=0;curved=1;" edge="1" parent="1" source="rMI3Hbo40x5JovAeGuvk-129" target="ZQ679UXOm5iZFMzoPjvu-19">
          <mxGeometry relative="1" as="geometry">
            <Array as="points">
              <mxPoint x="-223" y="1770" />
              <mxPoint x="-339" y="1770" />
            </Array>
          </mxGeometry>
        </mxCell>
        <mxCell id="rMI3Hbo40x5JovAeGuvk-137" value="no" style="edgeLabel;html=1;align=center;verticalAlign=middle;resizable=0;points=[];" connectable="0" vertex="1" parent="rMI3Hbo40x5JovAeGuvk-136">
          <mxGeometry x="-0.7402" y="-4" relative="1" as="geometry">
            <mxPoint as="offset" />
          </mxGeometry>
        </mxCell>
        <mxCell id="rMI3Hbo40x5JovAeGuvk-129" value="if &lt;br&gt;&lt;span style=&quot;background-color: rgb(13, 16, 23); color: rgb(191, 189, 182); font-family: &amp;quot;Fira Code&amp;quot;, &amp;quot;Droid Sans Mono&amp;quot;, &amp;quot;monospace&amp;quot;, monospace; white-space: pre;&quot;&gt;&lt;font style=&quot;font-size: 12px;&quot;&gt;isConsoleLog&lt;/font&gt;&lt;/span&gt;&amp;nbsp;?" style="rhombus;whiteSpace=wrap;html=1;fillColor=#ffe6cc;strokeColor=#d79b00;" vertex="1" parent="1">
          <mxGeometry x="-293" y="1477" width="140" height="140" as="geometry" />
        </mxCell>
        <mxCell id="rMI3Hbo40x5JovAeGuvk-141" style="edgeStyle=orthogonalEdgeStyle;rounded=0;orthogonalLoop=1;jettySize=auto;html=1;exitX=0.75;exitY=1;exitDx=0;exitDy=0;curved=1;" edge="1" parent="1" source="rMI3Hbo40x5JovAeGuvk-133" target="ZQ679UXOm5iZFMzoPjvu-19">
          <mxGeometry relative="1" as="geometry">
            <Array as="points">
              <mxPoint x="-300" y="1650" />
              <mxPoint x="-300" y="1760" />
              <mxPoint x="-339" y="1760" />
            </Array>
          </mxGeometry>
        </mxCell>
        <mxCell id="rMI3Hbo40x5JovAeGuvk-133" value="print logs&lt;br&gt;to terminal" style="rounded=1;whiteSpace=wrap;html=1;" vertex="1" parent="1">
          <mxGeometry x="-364.4" y="1600.06" width="89.91" height="50" as="geometry" />
        </mxCell>
        <mxCell id="rMI3Hbo40x5JovAeGuvk-147" style="edgeStyle=orthogonalEdgeStyle;rounded=0;orthogonalLoop=1;jettySize=auto;html=1;entryX=0.5;entryY=0;entryDx=0;entryDy=0;" edge="1" parent="1" source="rMI3Hbo40x5JovAeGuvk-146" target="ZQ679UXOm5iZFMzoPjvu-2">
          <mxGeometry relative="1" as="geometry" />
        </mxCell>
        <mxCell id="Koo51mGg2d73XqtxgKP0-1" value="&lt;div style=&quot;color: rgb(191, 189, 182); background-color: rgb(13, 16, 23); font-family: &amp;quot;Fira Code&amp;quot;, &amp;quot;Droid Sans Mono&amp;quot;, &amp;quot;monospace&amp;quot;, monospace; font-size: 12px; line-height: 19px; white-space-collapse: preserve;&quot;&gt;&lt;div style=&quot;line-height: 19px;&quot;&gt;runr &lt;span style=&quot;color: #f29668;&quot;&gt;=&lt;/span&gt; runner.&lt;span style=&quot;color: #ffb454;&quot;&gt;NewRunner&lt;/span&gt;(&lt;span style=&quot;color: #aad94c;&quot;&gt;&quot;ping 8.8.8.8 -c 4&quot;&lt;/span&gt;)&lt;/div&gt;&lt;/div&gt;" style="edgeLabel;html=1;align=center;verticalAlign=middle;resizable=0;points=[];" connectable="0" vertex="1" parent="rMI3Hbo40x5JovAeGuvk-147">
          <mxGeometry x="-0.182" y="3" relative="1" as="geometry">
            <mxPoint as="offset" />
          </mxGeometry>
        </mxCell>
        <mxCell id="rMI3Hbo40x5JovAeGuvk-146" value="start" style="ellipse;whiteSpace=wrap;html=1;aspect=fixed;fillColor=#d5e8d4;strokeColor=#82b366;" vertex="1" parent="1">
          <mxGeometry x="128.50000000000028" y="160.99999999999955" width="80" height="80" as="geometry" />
        </mxCell>
      </root>
    </mxGraphModel>
  </diagram>
</mxfile>
